<?xml version='1.0' encoding='utf-8'?>
<svg xmlns="http://www.w3.org/2000/svg" enable-background="new 0 0 400 400" version="1.1" viewBox="0 0 400 400">
<rect width="400" height="400" fill="#A3BDD7"/>
<path d="m336 320.9c-1.9-0.6-3.8-1.3-5.7-2-1.2-0.4-2.4-0.5-3.4 0-3.2 1.5-6.6 2.7-9.3 4.9-0.5 0.4-1.1 0.6-1.7 0.8-3.6 1.6-7.3 3.2-10.9 4.7-0.5 0.2-1.1 0.4-1.7 0.4-2.2 0.2-4.4 0.3-6.6 0.5-0.5 0-1-0.1-1.4-0.2-3.3-0.8-6.6-1.5-9.9-2.6-3.2-1-6.4-2.4-9.6-3.7-1.7-0.7-3.3-1.6-4.6-2.9-1.1-1.1-2.9-1.7-4.1-2.8-4.4-4-9.6-7.3-13.3-12-0.5-0.6-1.4-1-2-1.6-2.1-1.7-4.2-3.4-6.4-5-2.8-2.2-5.7-4.4-8.5-6.5-0.6-0.5-1.4-0.8-2-1.3-4.6-4.1-10.5-5.9-15.9-8.4-1-0.5-2-0.5-2.9-0.4-1.6 0.2-3 1.2-3.4 1.7s-0.9 2.4-0.1 4.2c0.4 1 1.1 2 1.9 3 1.8 2.2 3.7 4.2 6 6.1 2.1 1.8 3.8 4 5.7 6 1.5 1.6 3.1 3.2 4.8 4.5 4.2 3.2 8.4 6.2 12.6 9.3 2.6 1.9 5.2 3.8 7.9 5.6 0.9 0.6 2 1.2 3 1.7 5.8 2.6 11.5 5.3 17.6 6.9 3.2 0.8 6.4 2 9.5 2.2 6.6 0.5 13.4 1.7 19.9 0.4 2.3-0.5 4.7-0.2 6.9-0.6 2.6-0.4 5.2-1.1 7.6-1.9l9-3.3c4.5-1.7 8.9-3.5 9.9-4 0.6-0.3 1.2-0.7 1.7-1 0.5-0.4 1.2-0.9 1.3-1.4-0.1-0.9-1.1-1.1-1.9-1.3z" fill="#fff"/>
<path d="m231.9 313.5c-0.5-0.3-0.8-0.7-1.3-1.1-1.2-0.9-2.3-0.7-2.4 0.6-0.1 1.4 0 2.9 0.4 4.2 0.3 0.9 0.6 1.8 1 2.7 0.6 1.4 1.3 2.7 1.5 2.9 0.2 0.1 0.5 0.3 0.6 0.3h0.3c2.9 0.3 3.3-0.2 3.6-2.7 0.5-3-0.8-5.2-3.7-6.9z" fill="#fff"/>
<path d="m256.8 294.2c-0.3-0.1-0.6-0.2-0.9-0.2-2.8-0.2-5.5-0.8-8.2-0.3-0.7 0.2-1.4 0.3-1.3 1.1 0.1 0.6 0.4 1.3 0.9 1.6 0.8 0.6 1.8 1 2.7 1.2 1.8 0.5 3.6 0.8 5.3 1.2 0.5 0.1 1 0.1 1.5 0.1 1.2 0.1 2-0.4 2.3-1.4 0.2-0.6 0.1-1.1-0.2-1.6-0.5-0.8-1.6-1.5-2.1-1.7z" fill="#fff"/>
<path d="m258.3 314.6c-1.5-1.7-3.7-2.1-5.8-2.5-3.9-0.7-3.9-0.7-3.8-4.3 0.1-1.7-0.6-3.2-2.2-4.4-1.4-1-2.7-2.1-4.1-3.2-0.3-0.3-0.8-0.6-0.9-0.9-1.2-3.5-4.8-5.1-7.1-7.7-1.2-1.4-11.2-4.4-13.1-4.3-2.1 0.1-2.7 0.7-2.5 2.7 0.2 2.5 1.2 4.5 3.8 5.8 0.3 0.2 0.8 0.5 0.8 0.7 0 1.6 1.5 2.4 2.3 3.5 0.9 1.3 1.9 2.6 2.5 4 0.9 2.1 2.1 3.7 4.6 4.2 1.2 0.3 2.3 0.7 3 1.9 0.3 0.6 1 0.9 1.6 1.4 2.2 1.8 4.7 2.5 7.4 2.1 1.4-0.2 2.6 0.3 3.4 1.6 0.4 0.6 0.8 1.1 1.2 1.7s0.8 1.3 1.3 1.9c2.3 2.9 9.6 6 13.1 5.7 1.9-0.2 2.2-0.7 1-2.2-2-2.6-4.2-5.2-6.5-7.7z" fill="#1EA3E0"/>
<path d="m278.4 326.1c-2.5-1.9-6.5-2.3-8.9-1-0.6 0.3-0.7 0.6-0.1 1.3 0.7 0.7 2.3 1.7 3.6 2.5 0.7 0.4 1.5 0.9 2.3 1.3 0.4 0.2 0.9 0.4 1.4 0.5 1.5 0.3 3.4-0.4 3.7-1.3 0.4-1.6-0.9-2.5-2-3.3z" fill="#1EA3E0"/>
<path d="m325.7 324.2c-0.4-0.3-2-0.8-3.1 0-0.6 0.4-1.1 1.1-1.5 1.7-0.7 1-0.1 2 1.3 2 0.5 0 1-0.1 1.6-0.2 0.8-0.2 1.8-0.7 2.1-1.1s0.6-1 0.5-1.3-0.5-0.8-0.9-1.1z" fill="#1EA3E0"/>
<path d="m338.2 319.8c0-0.1-2.3-1-5.1-1.9-1.7-0.6-3.5-1.1-5.2-1.5-1.3-0.3-3 0.5-4.3 1.2-5.5 3-10.7 6.4-16.4 9.2-3.8 1.8-8.4 1.8-12.9 1.2-8.2-1.1-16-3.7-22.7-9.3-5-4.3-9.9-8.7-15.1-12.8-7.6-6.1-15.3-12.1-23.2-17.8-4.3-3.1-9.1-5.6-14.4-6.6-0.4-0.1-0.8-0.1-1.2-0.1-0.7 0-0.7 0.3-0.2 0.7 0.4 0.2 0.7 0.4 1.1 0.6 6.3 2.1 11.9 5.3 17.1 9.3 9.8 7.5 19.7 14.9 28.6 23.4 2.7 2.5 5.7 4.8 8.8 6.9 6.8 4.8 14.4 6.9 22.4 7.5 4.2 0.3 8.1-0.3 11.9-1.3 0.6-0.1 1.2-0.3 1.7-0.6 3.3-1.9 6.7-3.9 10-5.9 1.6-1 3.1-2 4.5-3.2 1.7-1.4 3.6-1.9 6-1l7.8 3c0.2 0.1 0.4 0.1 0.6 0.1 0.3 0 0.4-0.2 0.3-0.4 0-0.4-0.1-0.6-0.1-0.7z"/>
<path d="m290.9 335.8c-0.7-0.2-1.4-0.2-2.1-0.3-8.1-1.3-16.2-2.1-24.1-4.7-7-2.2-13.2-6-19.4-9.8-8.3-5-15.4-11.4-22.1-18.3-1.7-1.7-3.4-3.5-5-5.3-2.3-2.7-4.4-5.5-6.6-8.2-0.1-0.2-0.3-0.3-0.4-0.4-0.3-0.2-0.5-0.1-0.4 0.2 0 0.2 0 0.4 0.1 0.6 1.1 1.9 1.9 3.8 3.3 5.5 5.8 7.1 12.2 13.8 19.5 19.7 2.6 2.1 2.9 7.4 0.5 9.4-0.9 0.8-1.9 0.8-3-0.1-1.6-1.3-3-2.8-3.3-4.7-0.4-2.1-0.4-4.1-0.6-6.2 0-0.2-0.1-0.5-0.1-0.7-0.1-0.4-0.4-0.4-0.7-0.2-0.2 0.2-0.3 0.4-0.4 0.6-0.7 3.4-0.2 9 4.3 12.3 1.9 1.5 3.5 1.6 5.2 0.2 1.5-1.3 2-3 2.1-4.9 0.2-1.9 0.4-1.9 2.3-0.8 7.7 4.6 15.1 10 23.9 12.1 7.3 1.8 14.7 2.9 22 4.3 1.6 0.3 3.2 0.6 4.8 0.8 0.2 0 0.5 0 0.7-0.1 0.4-0.1 0.4-0.4 0.1-0.7l-0.6-0.3z"/>
<path d="m341.6 322.1c-0.3 0-0.6 0.1-0.9 0.2-1 0.5-1.8 1.1-2.8 1.6-4.4 1.9-8.9 3.8-13.4 5.7-6.4 2.8-13.3 4-20.3 5.2-2.5 0.4-4.9 0.8-7.4 1.2-0.2 0-0.4 0.1-0.6 0.3-0.3 0.2-0.3 0.5 0.1 0.7 0.2 0.1 0.5 0.2 0.7 0.2 2.9-0.2 5.9-0.4 8.8-0.8 10.2-1.1 19.4-4.6 28.3-8.6 1-0.5 1.7-1.5 2.7-2.1 1.7-0.9 3.5-1.7 5.2-2.6 0.2-0.1 0.3-0.2 0.5-0.3 0.2-0.2 0.4-0.5 0.3-0.6-0.2-0.1-0.7-0.2-1.2-0.1z"/>
<path d="m255.6 292.3c-1.5-0.4-3-0.7-4.5-0.8-1.8-0.1-3.6 0.1-5.4 0.3-0.2 0-0.4 0.1-0.5 0.2-0.3 0.1-0.2 0.4 0.1 0.6 0.2 0.1 0.4 0.2 0.6 0.2 3.8 0.5 7.1 0 10.8 1.4 0.9 0.3 1.7 0.8 2.2 1.5 0.6 0.9 0.5 2-0.1 2.7s-1.6 1.1-2.6 1.1c-1.5 0.1-3.4-1-4.8-0.4-0.5 0.2 1.4 1.6 1.6 1.7 0.5 0.2 1 0.3 1.5 0.4 0.8 0.1 3 0.2 4.5-0.5 0.9-0.4 1.5-1.1 1.9-2.1 0.3-0.8 0.2-1.6-0.1-2.3-0.3-1.3-2.7-3.3-5.2-4z"/>
<path d="m275.1 327.8c-0.4-0.2-0.7-0.5-1.1-0.7-6.6-3.4-13.3-6.5-19.7-10.1-3.5-2-6.6-4.8-9.9-7.2-0.4-0.3-0.9-0.6-1.4-0.9-0.8-0.5-0.9-0.2-0.4 0.5 0.4 0.5 0.7 0.9 1.1 1.3 1.2 1.1 2.6 2 3.9 3 7.8 6.3 16.9 10.2 25.9 14.3 0.4 0.2 0.8 0.3 1.3 0.3 0.8 0.2 0.9-0.1 0.3-0.5z"/>
<path d="m209.6 282.8c-0.3 0.2-0.4 0.6-0.4 0.9 0 0.6 0.7 1.1 1.2 1 0.3-0.1 0.6-0.2 0.8-0.3 0.6-0.3 3.6-2 2.9-2.9-0.6-0.8-4 0.9-4.5 1.3z"/>
<path d="m76.6 23.5c-0.9 1.1-1.8 2.4-2.4 3.6-3.8 7.1-7.7 14.2-10.1 22-1.2 4-2.9 8.1-3.4 12.2-0.9 8.7-2.8 17.5-1.1 26.3 0.6 3.1 0.2 6.2 0.6 9.3 0.5 3.5 1.3 7.1 2.5 10.4 1.8 5.3 3.7 10.6 5.6 15.9 1.6 4.4 3.5 9.2 4.2 10.6 0.4 0.8 0.9 1.7 1.4 2.5s1.2 1.8 2 2c1.2 0.3 1.4-1.1 1.8-2 0.9-2.4 1.9-4.8 2.9-7.1 0.7-1.5 0.8-3 0.1-4.5-2-4.5-3.6-9.3-6.6-13.3-0.5-0.7-0.8-1.6-1.1-2.5-2.1-5.1-4.3-10.3-6.4-15.4-0.3-0.7-0.5-1.6-0.6-2.4-0.2-2.9-0.4-5.9-0.5-8.8 0-0.6 0.1-1.3 0.3-1.9 1.3-4.2 2.3-8.5 3.9-12.6s3.6-8 5.5-12c1-2.1 2.3-4 4.3-5.6 1.6-1.3 2.5-3.4 4-4.8 5.5-5.2 10.3-11.4 17-15.4 0.9-0.5 1.5-1.6 2.2-2.4 2.4-2.5 4.9-5 7.3-7.5 3.2-3.3 6.3-6.7 9.4-10 0.7-0.7 1.1-1.7 1.9-2.4 2.6-2.3 4.5-4.9 6.2-7.8h-30c-4.4 4.7-8.6 9.4-12.8 14.2-2.7 3.2-5.5 6.3-8.1 9.4z"/>
<path d="m81 3.3c4 1.1 7-0.1 9.4-3.3h-13.3c0.1 2 1.1 2.6 3.9 3.3z"/>
<path d="m116.6 22.5c-0.8 0-1.8 0.3-2.3 0.9-0.8 1-1.4 2.2-1.8 3.4-0.7 2.2-1.3 4.6-1.9 6.8-0.2 0.6-0.2 1.3-0.2 1.9-0.1 1.5 0.5 2.7 1.9 3.3 0.8 0.3 1.6 0.3 2.3 0.1 1.2-0.4 2.2-1.8 2.5-2.4 0.2-0.4 0.3-0.7 0.3-1.1 0.4-3.6 1.3-7.2 0.6-10.9-0.2-1.1-0.3-2-1.4-2z"/>
<path d="m95.4 5.4c-0.8 0.3-1.3 1.2-2 1.8-2.6 2.6-3.6 5.7-3.2 9.3 0.2 1.9-0.5 3.4-2.4 4.2-0.8 0.4-1.6 0.8-2.5 1.2-0.9 0.5-1.9 0.8-2.7 1.4-4.1 2.5-8.7 11.5-8.3 16.3 0.2 2.6 0.9 3.1 3.1 1.8 3.8-2.3 7.5-4.6 11.1-7.1 2.4-1.7 3.1-4.5 3.7-7.2 1.2-5.1 1.1-5.1 6.2-4.1 2.5 0.5 4.5-0.1 6.2-2.1 1.4-1.7 3-3.2 4.6-4.8 0.4-0.4 0.8-0.9 1.3-1 4.9-0.9 7.3-5.3 11-7.9 1-0.7 2.5-3.9 3.8-7.4h-26.4c-0.3 0.5-0.6 1.2-0.8 1.9-0.3 1.7-1 3.1-2.7 3.7z" fill="#fff"/>
<path d="m71.6 46.7c-1 0.7-2.5 2.8-3.5 4.3-0.6 0.9-1.3 1.8-1.9 2.8-0.3 0.5-0.5 1.2-0.7 1.8-0.4 1.9 0.4 4.6 1.8 5.1 2.1 0.8 3.3-0.6 4.4-1.9 2.7-3 3.4-8.2 1.7-11.7-0.4-0.8-0.9-1-1.8-0.4z" fill="#fff"/>
<path d="m70.8 115.4c-1.4-1.1-2.7-0.5-2.9 1.3-0.1 0.7 0 1.4 0.2 2.1 0.3 1.1 0.9 2.5 1.5 3s1.4 1 1.8 1 1.1-0.4 1.6-0.8c0.4-0.5 1.1-2.5 0.1-4.1-0.5-1-1.4-1.8-2.3-2.5z" fill="#fff"/>
<path d="m87.4 42.5c-3.6 3.1-6.9 6.6-10 10.3-6.9 8.1-10.1 17.7-11.1 28.2-0.5 5.5 0.2 10.8 1.5 16.1 0.2 0.8 0.4 1.6 0.8 2.3 2.6 4.8 5.2 9.6 8 14.4 1.3 2.3 2.8 4.6 4.4 6.7 2 2.6 2.6 5.2 1.2 8.2-1.5 3.2-3 6.5-4.4 9.8-0.1 0.2-0.1 0.5-0.1 0.7 0 0.4 0.2 0.6 0.5 0.4s0.7-0.3 0.8-0.3 1.4-2.8 2.8-6.4c0.9-2.2 1.7-4.4 2.3-6.6 0.5-1.7-0.6-4.1-1.6-5.9-4.1-7.9-8.8-15.5-12.4-23.6-2.4-5.4-2.3-11.5-1.3-17.4 1.8-10.7 5.6-20.5 13.8-28.2 6.1-5.8 12.5-11.4 18.4-17.4 8.7-8.9 17.5-17.9 25.7-27.3 1.8-2.1 3.5-4.3 4.9-6.6h-3.1c-2.2 3.2-4.7 6.3-7.4 9.2-10.9 11.5-21.6 23.2-33.7 33.4z"/>
<path d="m80.6 5.9c2.7 0.6 2.7 0.9 1.1 3.2-6.7 9.3-14.4 18-17.7 29.3-2.7 9.3-4.4 18.9-6.6 28.4-0.5 2.1-0.9 4.1-1.3 6.2 0 0.3 0 0.6 0.2 1 0.2 0.5 0.6 0.6 0.9 0.3 0.2-0.2 0.4-0.5 0.5-0.7 0.3-0.9 0.3-1.8 0.5-2.7 2-10.4 3.4-21 7.2-31 3.3-8.8 8.8-16.3 14.3-23.8 4.3-6.1 9.2-11.3 14.5-16.1h-3.7l-1.7 1.7c-3 3-10.5 2.3-13.2-1.2-0.1-0.2-0.2-0.3-0.3-0.5h-2.6c0.2 0.7 0.6 1.4 1.1 2.1 1.7 2.2 4.2 3.2 6.8 3.8z"/>
<path d="m75.4 142.2c-0.6-1.4-1.6-2.6-2.1-4-2.6-6.3-5.1-12.6-7.7-18.8-3.7-9-5.3-18.5-6.8-28-0.5-3.3-0.9-6.7-1.5-10.1 0-0.3-0.2-0.6-0.3-0.9-0.2-0.4-0.7-0.4-1 0-0.2 0.3-0.4 0.6-0.3 0.9 0.2 3.9 0.5 7.9 0.8 11.8 1.3 13.8 5.9 26.6 11.3 39.2 0.6 1.5 2.1 2.5 2.8 4 1.3 2.4 2.3 4.9 3.5 7.4 0.1 0.3 0.3 0.5 0.5 0.7 0.3 0.4 0.7 0.6 0.9 0.5s0.3-0.7 0.2-1.4c-0.1-0.6-0.1-1-0.3-1.3z"/>
<path d="m120.7 21.5c-0.2-0.4-0.6-0.4-0.8 0-0.2 0.3-0.3 0.5-0.4 0.8-0.8 4.9-0.2 9.4-2.3 14.1-0.5 1.1-1.1 2.2-2.2 2.7-1.2 0.6-2.8 0.2-3.8-0.7-0.5-0.5-0.9-1-1.1-1.7-0.4-1-0.2-3.4 0.2-5.1 0.3-1.1 0.5-2.2 0.1-3.1-0.3-0.7-2.2 1.6-2.4 1.8-0.6 1.1-0.8 2.6-0.8 3.8-0.1 2.9 0.9 5.8 3.8 7 1.2 0.5 2.2 0.5 3.2 0.4 1.8-0.3 4.6-3.2 5.7-6.3 0.7-1.9 1.1-3.9 1.3-5.9 0.2-2.4-0.1-4.8-0.2-7.2-0.1-0.1-0.2-0.4-0.3-0.6z"/>
<path d="m96.1 14.6c-0.6 0.4-1.3 0.8-1.8 1.3-1.6 1.4-2.9 3-4.4 4.5-9.1 9.1-14.8 20.4-20.8 31.6-0.3 0.5-0.4 1-0.5 1.6-0.1 0.9 0.2 1.1 0.8 0.4 0.3-0.4 0.7-0.8 0.9-1.3 4.9-8.1 9.5-16.3 14.7-24.2 2.9-4.3 6.9-7.8 10.4-11.7 0.5-0.5 0.9-1.1 1.3-1.7 0.8-0.8 0.4-1.1-0.6-0.5z"/>
<path d="m254.8 4.5c5.7 2.6 11 6.1 17.4 6.6 0.8 0.1 1.6 0.5 2.4 0.6 3.7 0.7 7.3 1.3 11 1.9 2.8 0.5 5.6 0.9 8.3 1.3 0.9 0.1 1.8 0.6 2.6 0.5 6.3-0.7 12.4 1 18.6 1.5 1.7 0.1 3.3 1.1 5 1.2 2 0.1 3.8 0.6 5.5 1.5 3.2 1.6 6.4 3.2 9.4 5.1s5.8 4.2 8.7 6.3c0.4 0.3 0.8 0.7 1.1 1.1 1.4 2 2.7 3.9 4 5.9 0.4 0.5 0.6 1.2 0.8 1.8 1.2 4.4 2.3 8.7 3.4 13.1 0.2 0.7 0.5 1.4 0.5 2.2 0 4.1 1.3 7.9 2.2 11.8 0.3 1.3 1.1 2.2 2.3 2.9 1.8 1 3.6 2.1 5.4 3.2 0.7 0.4 1.5 1.2 2.1 0.4 0.4-0.5 0.4-1.5 0.3-2.2-0.1-0.8-0.2-1.5-0.3-2.3-0.2-1.3-1.7-6.6-3.4-11.9-1-3.4-2.1-6.7-3.2-10.1-0.9-2.7-2.1-5.4-3.5-8-1.2-2.2-3-4-4.1-6.3-3.2-6.5-8.7-11.3-13.6-16.5-2.3-2.5-5.4-4.3-8.1-6.3-5.3-3.9-11.4-6.5-17.3-9.3l-1.5-0.6h-59c0.1 0.8 0.4 1.6 0.8 2.3 0.4 1 1.1 1.8 2.2 2.3z" fill="#fff"/>
<path d="m291.7 22.6c-1.5-1.2-3-2.4-4.5-3.5-0.8-0.6-1.8-1.1-2.8-1.3-0.6-0.1-1.4 0.2-1.9 0.6-0.7 0.5-0.4 1.3 0 2 1.3 2.7 3.7 4.6 5.7 6.8 0.2 0.2 0.5 0.4 0.8 0.6 0.5 0.3 1.7 0.6 2.8 0.3 0.6-0.2 1.1-0.6 1.5-1.2 0.6-1.1 0.5-2.1-0.3-3.1-0.6-0.5-0.9-0.9-1.3-1.2z" fill="#fff"/>
<path d="m259.7 3.4c1.2 1.6 10.2 7.6 12.2 7.6 3.7-0.2 7.4 1.6 11-0.3 0.4-0.2 0.9-0.1 1.3 0 1.8 0.3 3.6 0.5 5.3 0.9 2.1 0.4 3.7-0.2 5-1.7 2.8-3.1 2.8-3.1 6-0.3 1.7 1.5 3.6 2.9 5.9 2.9 3.6-0.1 7.1-0.5 10.7-0.8 2-0.2 2.2-0.9 1.1-2.7-2.1-3.3-9.4-6.9-13.4-6.5-0.8 0.1-1.6 0.3-2.4 0.4-0.7 0.1-1.5 0.2-2.2 0.4-1.6 0.4-2.8-0.2-3.6-1.6-0.3-0.7-0.6-1.2-1.1-1.7h-36.3c-0.7 1-0.6 2 0.5 3.4z" fill="#BF170F"/>
<path d="m330.4 14c-0.9-0.3-1.8-0.6-2.6-0.9-1.4-0.5-3.4-1.1-4.4-1.1-0.9 0-1.1 0.4-0.9 1.1 0.6 3.1 3.6 6.1 6.8 6.8 1.4 0.3 2.9 0.6 3.8-0.9 0.6-1-0.1-3.2-1.4-4.2-0.4-0.3-0.8-0.7-1.3-0.8z" fill="#BF170F"/>
<path d="m359.9 55.5c-0.5-0.5-1-0.7-1.5-0.6-0.9 0.2-1.5 2.4-1.4 3.9s1.6 2.5 2.1 2.6 1.2 0 1.4-0.2c0.3-0.2 0.6-0.9 0.7-1.5s-0.1-1.8-0.5-2.7c-0.1-0.5-0.4-1.1-0.8-1.5z" fill="#BF170F"/>
<path d="m364.2 74.5c-2.5-1.4-5.1-2.8-7.6-4.2-2.4-1.3-3.3-3.3-3.2-5.9 0-2.1-0.1-4.3-0.4-6.4-0.6-4.4-1.2-8.8-1.9-13.2-0.1-0.6-0.4-1.3-0.6-1.9-1.8-4-3.9-7.9-6.9-11.2-5.7-6.3-12.6-11-21-12.9-3.8-0.8-7.6-1.6-11.5-1.8-12.8-0.7-25.4-3.1-38.1-5.2-6.7-1.1-13.1-3.3-19-6.9-0.4-0.2-0.8-0.4-1.2-0.5-0.7-0.2-0.9 0.1-0.5 0.7 0.3 0.3 0.6 0.7 0.9 1 4.3 3.7 9.6 5.7 14.9 6.8 9.9 2.1 19.9 3.6 29.9 5.1 6.8 1 13.6 1.5 20.4 2.3 9 1 16.3 5.5 22.7 11.6 3.5 3.3 6.6 7.2 7.7 11.9 1.6 7 2.3 14.2 3.5 21.3 0.3 1.6 0.7 3.7 1.9 4.6 1.5 1.2 3.1 2.2 4.7 3.2 2.7 1.6 4.9 2.9 5 2.8s0.4-0.2 0.6-0.2c0.3 0 0.4-0.3 0.1-0.6-0.1-0.2-0.2-0.3-0.4-0.4z"/>
<path d="m343.8 21.1c0.6 0.5 1 1.1 1.6 1.5 0.2 0.1 0.4 0.2 0.7 0.2 0.4 0.1 0.6-0.2 0.5-0.6-0.1-0.3-0.2-0.5-0.4-0.7-1.2-1.2-2.5-2.3-3.8-3.4-6-5.1-11.8-10.4-18.1-15.2-1.5-1.1-3-2.1-4.6-2.9h-4.8c3.1 1.2 6.2 2.7 9.1 4.5 7.3 4.6 13.4 10.8 19.8 16.6z"/>
<path d="m367.7 69.5c-0.2-1.3 0.2-2.7-0.1-3.9-2.6-10.8-5.9-21.4-11.8-30.9-1.7-2.7-3.4-5.4-5.2-8-0.1-0.2-0.4-0.3-0.7-0.4-0.4-0.1-0.7 0.1-0.6 0.5 0 0.3 0.1 0.5 0.2 0.7 1.3 2.4 2.7 4.8 4 7.2 3.7 6.9 7.3 13.8 9.3 21.5 1.4 5.3 2.9 10.6 4.2 16 0.3 1.2 0.3 2.5 0.6 3.6 0.1 0.3 0.2 0.6 0.4 0.9 0.3 0.5 0.7 0.8 0.8 0.8 0.2 0 0.3-0.4 0.3-0.8v-0.7c-0.4-2.2-1-4.3-1.4-6.5z"/>
<path d="m293.1 20.1c-0.4-0.4-0.8-0.7-1.3-0.9-0.2-0.1-2.5-0.6-2.4 0 0.4 1.6 2.6 2.4 3.5 3.7 0.6 0.9 1 2 0.8 3.1s-1 2.1-2.1 2.3c-0.9 0.2-1.9-0.2-2.7-0.7-3.7-2-5.5-5.2-8.4-8-0.2-0.2-0.4-0.2-0.6-0.3-0.4-0.1-0.6 0-0.5 0.4 0 0.2 0.1 0.4 0.2 0.6 1.1 1.6 2.1 3.3 3.3 4.7 1.1 1.2 2.3 2.3 3.7 3.2 2.2 1.5 5.5 2 6.8 1.3s2.8-3.2 2.4-5.1c-0.5-1.9-2-3.7-2.7-4.3z"/>
<path d="m327.6 14.2c-9.3-4.3-18.5-8.9-28.9-10.3-1.7-0.3-3.4-0.7-5.1-0.8-0.6 0-1.2 0-1.8 0.1-1 0.1-1.1 0.4-0.2 0.7 0.5 0.2 1.1 0.3 1.6 0.4 4.1 0.8 8.5 1.2 12.4 2.5 7.2 2.5 14.2 5.6 21.4 8.4 0.4 0.2 0.8 0.3 1.3 0.4 0.7 0.2 0.8-0.1 0.3-0.6-0.3-0.3-0.6-0.6-1-0.8z"/>
<path d="m250.1 1.9c0.5-0.1 0.7-0.9 0.7-1.9h-1.9c0.3 1 0.7 1.9 1.2 1.9z"/>
<path d="m134.2 384.6c-0.3-2.1-1.6-4.2-2.3-4.8s-3.3-1.6-5.8-1c-1.5 0.4-2.9 1-4.3 1.9-3.2 1.9-6 4.1-8.7 6.7-2.6 2.5-5.7 4.2-8.5 6.4-2.2 1.7-4.5 3.5-6.4 5.5-0.2 0.2-0.4 0.5-0.7 0.7h30c2.2-3.8 4-7.8 6.1-11.7 0.6-1.2 0.8-2.4 0.6-3.7z"/>
<path d="m92.3 398.1c1.3-1.4 1.1-2.9-0.8-3.3s-4-0.5-6-0.3c-1.3 0.2-2.5 0.5-3.8 0.8-2.1 0.5-3.9 1.2-4.1 1.4s-0.4 0.6-0.4 0.8v0.4c-0.1 0.8-0.1 1.5-0.1 2.1h13.3c0.1-0.1 0.2-0.3 0.3-0.4 0.4-0.6 1.1-1 1.6-1.5z"/>
<path d="m124.1 387c-3.5-0.2-6.4 0.7-8.3 3.9-0.2 0.4-0.7 0.9-1 0.9-2.3-0.3-3.4 1.5-5 2.4-1.8 1-3.7 2-5.7 2.5-2.4 0.6-4.2 1.5-5.3 3.3h26.4c1.4-3.8 2.6-7.8 2.6-9.1 0.1-2.8-0.8-3.8-3.7-3.9z" fill="#fff"/>
<path d="m136.4 387.2c0-0.9-0.4-1-1-0.3-0.3 0.4-0.6 0.9-0.8 1.4-1.6 4.2-3.7 8.1-6.2 11.7h3.1c2.1-3.4 3.8-7.1 4.7-11.2 0.2-0.5 0.2-1 0.2-1.6z"/>
<path d="m75.8 396.6c1.9-1.9 4-3.4 6.7-3.4 2.9-0.1 5.8 0.3 8.7 0.4h1c0.5-0.1 0.6-0.4 0.2-0.9-0.3-0.3-0.5-0.5-0.8-0.6-4.7-1.6-12.7-2-17.5 3.2-1.5 1.6-2 3.1-1.5 4.8h2.6c-0.6-1.3-0.5-2.4 0.6-3.5z"/>
<path d="m113.6 384.7c3.8-2.5 7.8-4.8 11.7-7.2 0.2-0.1 0.4-0.3 0.6-0.5 0.3-0.3 0.2-0.6-0.2-0.6-0.3 0-0.5 0-0.8 0.1-2.6 1-5.4 1.8-7.8 3.3-9.5 5.9-18.5 12.5-26.5 20.3h3.7c3.8-3.4 7.7-6.7 11.8-9.8 2.4-2 4.9-3.9 7.5-5.6z"/>
<path d="m133.3 375.4c-0.8-0.1-1.5 0.7-1.4 1.4 0.1 0.4 0.2 0.8 0.4 1.1 0.5 0.9 2.7 5.1 4 4.4 1.1-0.6-1.2-5.5-1.8-6.2-0.4-0.4-0.8-0.6-1.2-0.7z"/>
<path d="m299 397.4c-5.3-1.1-10.7-2.2-16-3.1-2.3-0.4-4.6-0.4-6.9-0.4-2.9-0.1-5.8 0.3-8.7 0-3-0.4-5.9-0.4-8.9-0.1-1.3 0.1-2.5 0.4-3.7 0.9-1.9 0.8-3.2 2.8-3.3 3.5-0.1 0.4 0 1.1 0.1 1.9h59c-0.6-0.2-1.2-0.4-1.9-0.6-3.1-0.8-6.4-1.5-9.7-2.1z" fill="#fff"/>
<path d="m295.7 382.9c-0.1-0.1-0.4-0.3-0.6-0.3s-1.7 0.4-3.3 1.1c-1 0.4-1.9 0.8-2.8 1.3-1.4 0.8-2.7 1.9-3.7 3.1-1 1.1-0.4 2.3 1.1 2.5 0.6 0.1 1.2 0 1.7 0.2 3.3 1.1 5.9 0.5 8.1-2.3 1.9-2.4 1.9-3.1-0.2-5.3l-0.3-0.3z" fill="#fff"/>
<path d="m290 397.1c-0.7-0.1-1.5-0.4-2.2-0.2-1.4 0.4-2.5-0.2-3.5-1-2.1-1.7-4.2-1.4-6.5-0.4-1.5 0.7-3.2 0.9-4.9 1.2-1.5 0.2-3.1-0.4-4.4 0.9-0.2 0.2-0.7 0-1-0.1-2.8-1.1-5.1-0.3-7.3 1.5-0.4 0.4-0.8 0.7-1 1h36.3c-1.4-1.6-3.2-2.6-5.5-2.9z" fill="#BF170F"/>
<path d="m297.6 390c1.4-1.7 2.5-3.5 2.6-5.8 0-2.5-1.1-3.9-3.6-4.3-5.6-1-10.6 3.1-12.9 6.5-0.2 0.2-0.2 0.5-0.2 0.8 0 0.5 0.2 0.7 0.6 0.4 0.2-0.1 0.4-0.3 0.6-0.4 1.8-1.5 3.5-3.2 5.4-4.5 1.8-1.3 3.9-1.4 6-1.1 1.4 0.2 2 1.1 2 2.5 0 3.6-4.5 7.7-8 7.2-9.6-1.4-19.3-1.3-29-0.4-2.3 0.2-4.5 1.1-6.7 1.7-0.2 0.1-0.4 0.2-0.5 0.3-0.3 0.2-0.2 0.5 0.2 0.5h0.6c3.7-0.3 7.4-0.8 11.1-1.1 2.5-0.2 5.1-0.1 7.6-0.1 10 0.1 19.9 0.8 29.6 3.8 4 1.2 7.9 2.4 11.8 4h4.8c-6.6-3.5-14-5.2-21.2-7.4-2.1-0.7-2.2-0.9-0.8-2.6z"/>
<path d="m250.2 396.1c-0.2-0.5-1.1-0.7-1.6-0.2-0.2 0.3-0.4 0.6-0.4 1s0.2 1.8 0.6 3.1h1.9c0-1.2-0.2-2.5-0.3-3 0-0.2-0.1-0.6-0.2-0.9z"/>
<path d="m247.7 66.9c-0.7-0.1-1.5-0.3-2.3-0.4-1.2-0.2-6.7-0.2-12.3-0.2-3.4 0-6.7 0.1-10.1 0.2-2.8 0.1-5.7 0.4-8.4 1-2.4 0.5-4.6 1.7-7.1 2.1-7 1.2-13 5-19.2 8.1-3 1.5-5.5 3.8-8.1 5.9-5.1 3.9-9.3 8.8-13.5 13.6-0.8 0.9-1.5 1.8-2 2.8-1.6 2.8-3.2 5.7-4.7 8.6-2.5 4.7-5 9.4-7.4 14.1-1 2-1.7 4.2-2.3 6.3-0.9 2.7-1.3 5.6-2.4 8.1-1.2 2.7-2 5.4-2.6 8.3-0.2 1.3-0.3 2.5-0.2 3.7 0.2 2 1.7 3.7 2.4 4.1 0.7 0.3 2.6 0.7 4.2 0.4 1-0.2 1.9-0.7 2.6-1.5 4-4.6 8.8-8.6 11.1-14.5 0.3-0.7 0.9-1.3 1.2-2 1.6-3.2 3.3-6.5 4.9-9.8 1.2-2.5 2.4-5 3.6-7.5 0.4-0.8 1-1.5 1.2-2.3 1.1-6.1 4.4-11.3 6.6-17 0.6-1.5 2-2.8 2.5-4.3 0.6-1.9 1.7-3.4 3-4.7 2.4-2.5 4.8-5.1 7.4-7.4s5.5-4.3 8.3-6.4c0.4-0.3 0.8-0.6 1.3-0.7 2.2-0.7 4.4-1.4 6.7-2.1 0.6-0.2 1.3-0.3 1.9-0.2 4.4 0.1 8.8 0.3 13.2 0.5 0.7 0 1.5 0 2.2 0.2 3.8 1.2 7.8 1 11.7 1.3 1.3 0.1 2.4-0.4 3.3-1.4 1.5-1.4 3-2.8 4.5-4.1 0.6-0.5 1.5-1 1-1.9-0.6-0.5-1.5-0.8-2.2-0.9z" fill="#fff"/>
<path d="m145.8 107.6c-0.1 0-0.2 0.1-0.3 0.1-0.2 0.1-0.4 0.3-0.5 0.5s-0.1 1.8 0.1 3.4c0.1 1 0.2 2 0.4 3 0.3 1.5 1 3 1.8 4.4 0.8 1.3 2 1.1 2.6-0.3 0.2-0.5 0.4-1.1 0.7-1.6 1.9-2.7 2.1-5.4 0.1-8.3-1.6-2.3-2.3-2.6-4.9-1.2z" fill="#fff"/>
<path d="m182.8 121.9c-0.5 0.2-0.9 0.4-1.4 0.7-1.5 1.1-3.1 2.1-4.6 3.3-0.8 0.6-1.5 1.4-2 2.2-0.3 0.5-0.2 1.4 0 2 0.3 0.8 1.1 0.7 1.9 0.6 2.9-0.5 5.3-2.2 7.9-3.4 0.3-0.1 0.5-0.3 0.8-0.6 0.4-0.4 1.1-1.4 1.1-2.5 0-0.6-0.2-1.2-0.7-1.7-0.8-1-1.9-1.1-3-0.6z" fill="#fff"/>
<path d="m176.1 93.9c-3.7 1.1-9.1 6.9-9.8 10.7-0.2 0.8-0.2 1.6-0.3 2.4-0.1 0.7-0.2 1.4-0.2 2.2-0.1 1.6-1 2.6-2.5 2.9-2.8 0.7-4.8 2.3-6.1 5-0.3 0.7-0.8 1.3-0.8 2-0.1 1.4-0.9 2.3-1.9 3-2.1 1.5-2.5 3.5-2.2 5.9 0.2 1.6-0.1 3.3-0.3 4.9-0.2 1.5-1.3 2.8-0.4 4.4 0.1 0.2-0.2 0.7-0.4 1-1.8 2.3-1.7 4.7-0.6 7.2 0.9 2.1 1.8 2.5 4 1.7 1.9-0.7 10-7.4 10.5-9.3 0.9-3.5 3.5-6.5 2.8-10.4-0.1-0.4 0.2-0.8 0.4-1.2 0.7-1.6 1.4-3.2 2.3-4.7 1-1.8 0.9-3.5-0.2-5.2-2.1-3.5-2.1-3.5 1.4-5.7 1.8-1.2 3.7-2.5 4.3-4.8 0.9-3.4 1.6-6.8 2.2-10.2 0.3-2-0.3-2.4-2.2-1.8z" fill="#1EA3E0"/>
<path d="m185.4 83c-0.4 0.3-0.9 0.6-1.1 1-0.5 0.7-1.1 1.5-1.6 2.2-0.8 1.2-2 2.9-2.2 3.8-0.2 0.8 0 1.1 0.8 1.2 3.1 0.3 6.7-1.6 8.2-4.5 0.6-1.2 1.4-2.5 0.2-3.8-0.7-0.9-2.9-0.8-4.3 0.1z" fill="#1EA3E0"/>
<path d="m235.8 67.8c-0.6-0.3-1.8-0.4-2.7-0.3-0.6 0.1-1.1 0.2-1.6 0.4-1.3 0.6-1.3 1.8-0.1 2.5 0.8 0.5 1.6 0.9 2.4 1.1 1.5 0.3 2.8-0.8 3-1.2 0.2-0.5 0.3-1.1 0.2-1.4s-0.7-0.8-1.2-1.1z" fill="#1EA3E0"/>
<path d="m251.4 69.2c0-0.3-0.2-0.4-0.5-0.3-0.2 0.1-0.4 0.2-0.5 0.3-2 2-4.1 4-6.1 6-1.9 1.9-4 2.1-6.4 1.4-2-0.6-4.1-1.1-6.2-1.4-4.3-0.7-8.6-1.3-12.9-2-0.6-0.1-1.3 0-1.9 0.1-4.3 0.5-8.5 1.4-12.4 3.3-7.5 3.6-13.8 8.7-17.9 16-1.9 3.3-3.6 6.7-4.9 10.2-4.3 11.8-10 23-15.5 34.2-2.9 6-6.8 11.4-11.8 15.9-0.3 0.3-0.6 0.6-0.8 1-0.4 0.6-0.1 0.9 0.5 0.6 0.4-0.2 0.8-0.3 1.1-0.6 4.7-3 8-7.4 10.5-12.1 4.7-8.7 9-17.6 13.2-26.6 2.8-6.1 5.3-12.3 7.9-18.5 3.5-8.1 9.7-13.7 17.2-18 4.1-2.4 8.6-4.2 13.3-3.8 7 0.5 14 1.9 21 2.7 1.6 0.2 3.7 0.4 4.8-0.5 1.5-1.1 2.9-2.3 4.3-3.5 2.3-2 4-3.8 4-3.9v-0.5z"/>
<path d="m196.5 71.1c-0.3 0-0.5 0-0.8 0.1-1.5 0.8-2.9 1.7-4.3 2.6-6.4 4.2-13.1 8.2-19.3 12.7-7.5 5.5-11.8 13.7-16.9 21.2-1.2 1.8-1.5 1.9-2.7 0.1s-2.6-3.3-4.7-4c-2.4-0.7-3.9-0.1-5 2.2-2.5 5 0 10.8 2.4 13.9 0.2 0.2 0.4 0.3 0.7 0.4 0.4 0.2 0.7 0 0.6-0.4-0.1-0.2-0.1-0.5-0.2-0.7-0.9-2.1-2-4.2-2.7-6.4-0.7-2-0.2-4 0.7-5.9 0.6-1.3 1.6-1.6 2.9-1.2 3.3 1 5.9 6.4 4.5 9.5-4 8.7-6.7 17.7-8.5 27-0.4 2.2-0.2 4.5-0.3 6.7 0 0.2 0.1 0.4 0.2 0.6 0.2 0.3 0.4 0.3 0.5 0 0.1-0.2 0.2-0.4 0.2-0.6 0.7-3.6 1.3-7.1 2.1-10.7 0.5-2.4 1.3-4.8 2-7.1 2.9-9.4 6.4-18.4 11.9-26.6 4.1-6.1 8.1-12.3 13.8-17.2 6.4-5.6 13.9-9.5 21.1-13.9 0.6-0.4 1.3-0.7 1.9-1.1 0.2-0.1 0.3-0.3 0.4-0.6 0.2-0.3-0.1-0.6-0.5-0.6z"/>
<path d="m253.9 65.3c-0.2-0.1-0.4-0.1-0.7-0.1-2.1-0.2-4.3-0.3-6.4-0.6-1.3-0.2-2.5-0.9-3.7-1-10.8-0.6-21.7-0.5-32.3 2.4-3 0.8-6 1.7-9 2.6-0.2 0.1-0.4 0.3-0.6 0.5-0.3 0.3-0.1 0.7 0.3 0.7 0.3 0 0.5 0.1 0.7 0 2.6-0.5 5.3-1.2 7.9-1.7 7.5-1.5 15-3 22.7-2.7 5.4 0.2 10.8 0.3 16.1 0.5 1.2 0 2.4 0.4 3.6 0.5 0.3 0 0.6 0 1-0.1 0.5-0.1 1-0.4 1-0.6 0-0.1-0.3-0.3-0.6-0.4z"/>
<path d="m187.2 120.8c-1.7-1.8-4.1-1.7-6.2-0.9-0.9 0.4-2 0.9-2.6 1.7-0.1 0.2-1.2 2.2-0.7 2.2 1.6 0.1 3-1.7 4.4-2.2 1-0.3 2.2-0.4 3.1 0.1 1 0.5 1.6 1.5 1.5 2.6-0.1 0.9-0.7 1.7-1.4 2.4-2.9 2.9-6.4 3.7-9.8 5.6-0.2 0.1-0.3 0.3-0.5 0.5-0.2 0.3-0.1 0.6 0.2 0.6h0.6c1.8-0.6 3.7-1 5.4-1.8 1.4-0.7 2.8-1.5 4-2.5 2-1.7 3.4-4.6 3.1-6-0.1-0.9-0.4-1.6-1.1-2.3z"/>
<path d="m184.8 85.9c-0.4 0.2-0.8 0.5-1.1 0.8-6.7 7.5-13.5 14.9-17.7 24.1-0.7 1.5-1.6 3-2.2 4.5-0.2 0.5-0.3 1.1-0.4 1.7-0.2 1 0.1 1.1 0.6 0.3 0.3-0.5 0.6-0.9 0.9-1.4 1.9-3.6 3.5-7.6 5.8-10.9 4.4-6.1 9.3-11.8 13.9-17.6 0.3-0.3 0.5-0.7 0.7-1.1 0.4-0.6 0.2-0.8-0.5-0.4z"/>
<path d="m146 154h-0.9c-0.5 0.1-0.9 0.9-0.6 1.4 0.2 0.3 0.4 0.6 0.8 0.7 0.7 0.2 5 0.6 5.1-0.4 0.2-1.1-3.6-1.6-4.4-1.7z"/>
<path d="m25.6 277.9c3 1.7 6.2 3.1 9.5 4.1 4.6 1.5 9.2 3 13.8 4.4 5.3 1.6 10.8 3.2 12.3 3.4 0.9 0.1 1.8 0.3 2.8 0.4 0.9 0.1 2.1 0.1 2.7-0.4 0.9-0.8 0-1.7-0.5-2.5-1.3-2.1-2.6-4.2-3.8-6.4-0.8-1.4-1.9-2.4-3.4-2.7-4.7-1.1-9.2-2.6-14.1-2.6-0.9 0-1.7-0.3-2.6-0.6-5.2-1.3-10.4-2.6-15.6-4-0.8-0.2-1.5-0.5-2.2-0.9-2.4-1.5-4.8-3.1-7.1-4.7-0.5-0.3-0.9-0.8-1.3-1.3-2.5-3.4-5.3-6.7-7.5-10.3-2.3-3.6-4.1-7.4-6.1-11.2-1-2-1.7-4.1-1.8-6.5 0-0.9-0.3-1.8-0.6-2.7v25.1c5.6 5.4 11 11.2 18.1 14.6 2.6 1.2 4.8 3.4 7.4 4.8z"/>
<path d="m11.2 197.8c-2.6-2.4-4.8-5.2-8.1-6.8-0.9-0.4-1.7-0.8-2.4 0-0.5 0.6-0.8 1.6-0.7 2.3 0.3 1.2 0.9 2.3 1.6 3.3 1.3 1.9 2.8 3.6 4.2 5.4 0.4 0.5 0.9 0.9 1.4 1.3 1.1 1 2.4 1.2 3.7 0.4 0.7-0.4 1.2-1 1.4-1.8 0.4-1.2-0.1-2.7-0.4-3.3-0.2-0.2-0.4-0.6-0.7-0.8z"/>
<path d="m1.8 251.4c1.8-1.1 1.4-2.9 1.1-4.5-0.4-1.9-1.4-3.7-2.9-5.2v9.9c0.7 0.1 1.4 0 1.8-0.2z" fill="#BF170F"/>
<path d="m49.4 279.9c-1.1-0.1-2.2 0.2-3.2 0.5-1.6 0.5-2 1.8-0.7 3 0.5 0.4 1.1 0.8 1.7 1.1 1 0.5 2.5 0.7 3.2 0.6s1.6-0.5 1.8-0.9c0.3-0.3 0.4-1.1 0.3-1.7-0.1-0.7-1.3-2.5-3.1-2.6z" fill="#BF170F"/>
<path d="m16.9 263.9c3.9 3.6 8.5 6.1 13.3 8.2 0.7 0.3 1.5 0.6 2.3 0.7 5.2 0.8 10.5 1.5 15.7 2.2 2.5 0.3 5.1 0.5 7.7 0.5 3.1 0 5.5 1 7 3.8 1.6 3 3.3 6.1 5 9.1 0.1 0.2 0.3 0.4 0.5 0.5 0.3 0.3 0.6 0.2 0.7-0.2 0-0.3 0.2-0.7 0.2-0.8s-1.4-2.7-3.3-5.9c-1.2-1.9-2.4-3.8-3.8-5.6-1.1-1.4-3.5-1.9-5.5-2.2-8.5-1.4-17.1-2.2-25.5-4.1-5.6-1.2-10.2-4.9-14.2-9.1-7.2-7.6-12.6-16.3-13.8-27-0.9-8.1-1.6-16.3-2.8-24.3-0.2-1.1-0.4-2.3-0.5-3.4v24.7c0.4 2.7 0.9 5.3 1.5 8 2.4 9.9 8 18.1 15.5 24.9z"/>
<path d="m4.8 267.1c0.2 0.2 0.5 0.3 0.8 0.4 0.5 0.2 0.8-0.1 0.8-0.6-0.1-0.3-0.1-0.6-0.3-0.8-0.5-0.7-1.2-1.3-1.8-1.9-1.4-1.6-2.9-3.1-4.3-4.7v2.1c0.2 0.3 0.5 0.6 0.7 0.9 1.4 1.5 2.7 3.1 4.1 4.6z"/>
<path d="m70.6 292.8c-0.4-0.2-0.7-0.4-1.1-0.5-1.4-0.3-2.9-0.3-4.4-0.7-6.4-1.6-12.7-3.4-19-5-9.1-2.3-17.4-6.6-25.6-11-2.9-1.5-5.7-3.2-8.6-4.7-0.3-0.1-0.6-0.2-0.9-0.2-0.5-0.1-0.7 0.3-0.6 0.8 0.1 0.3 0.3 0.6 0.5 0.8 3.2 2.1 6.3 4.2 9.6 6.2 11.4 7 24 10.9 36.9 14 1.5 0.4 3.2-0.1 4.7 0.1 2.6 0.4 5.1 1.1 7.7 1.6 0.3 0.1 0.5 0.1 0.8 0.1 0.5 0 0.9-0.2 0.9-0.4 0.1-0.3-0.3-0.7-0.9-1.1z"/>
<path d="m8.8 191.5c-1.7-1.5-3.7-2.7-5.7-4-0.2-0.1-0.4-0.2-0.7-0.2-0.4-0.1-0.6 0.2-0.4 0.6 0.1 0.3 0.2 0.5 0.4 0.7 3.3 3.4 7.2 5.6 9.6 10 0.5 1 1 2.1 0.8 3.2-0.1 0.6-0.5 1.2-1 1.7-0.8 0.7-2.6 1-3.7 0.8-1-0.3-2.8-1.8-3.8-3.1s-2.8-1.3-2.7-0.5c0.1 0.7 0.2 1.4 0.3 1.5 0.5 1.1 1.5 2.1 2.5 2.9 2.2 1.7 5 2.6 7.6 1.2 1.1-0.6 1.7-1.4 2.1-2.3 0.8-1.6 0.2-5.4-1.6-8.1-1-1.7-2.3-3.1-3.7-4.4z"/>
<path d="m399.2 230c-0.6-7.4-2.7-14.7-1.9-22.2 0.1-1-0.4-2.1-0.6-3.1-0.5-3.3-1-6.6-1.6-9.9-0.7-4.4-1.5-8.7-2.3-13.1-0.2-1-0.7-1.9-0.7-2.8-0.7-7.7-4.9-14-7.9-20.8-0.6-1.2-1.5-2.1-2.5-2.7-1.8-1-4.2-1.2-5.1-1-0.9 0.1-3.2 1.6-4.2 3.9-0.6 1.4-0.9 2.8-1 4.4-0.4 3.6-0.3 7 0.2 10.6 0.4 3.4 0 6.9 0 10.3 0.1 2.7 0.1 5.5 0.5 8.2 1.1 6.4 2.4 12.7 3.7 19.1 0.8 3.9 1.6 7.8 2.5 11.7 0.3 1.4 0.8 2.7 1.4 4 3.3 7.1 6.5 14.2 11.1 20.6 2.4 3.3 4.5 6.9 7.5 9.7 0.5 0.5 1.1 1 1.6 1.5v-25.1c-0.2-1.1-0.6-2.2-0.7-3.3z"/>
<path d="m367.8 195.7c-0.3-1.8-1.6-2.5-3-1.3-1.4 1.3-2.7 2.8-3.7 4.5-0.6 1.1-1.1 2.2-1.6 3.4-0.8 1.9-1.3 3.7-1.3 4s0.2 0.6 0.4 0.8l0.3 0.3c2.6 2.5 3.5 2.4 6.3 0.2 3.3-2.6 4.1-5.8 2.8-9.7-0.1-0.8-0.1-1.5-0.2-2.2z"/>
<path d="m390.8 205.4c1.8-1.6 2.5-3.6 2-6-0.5-2.1-0.7-4.2-1-6.3-0.1-0.5-0.2-1.2 0-1.6 2.2-4.3 0.1-8.7 0.3-13.1 0.1-2.3-7.1-13.1-9-14.5-2.2-1.6-3.5-1.5-5.2 0.7-2.2 2.6-3.1 5.4-1.8 8.6 0.2 0.4 0.3 1.1 0.1 1.3-1.6 1.6-0.8 3.5-1 5.3-0.3 2-0.6 4-1.4 5.9-1.2 2.8-1.5 5.2 0.5 7.7 0.9 1.2 1.6 2.5 1.2 4.2-0.2 0.8 0.1 1.7 0.2 2.6 0.5 3.5 2.3 6.1 5.4 7.9 1.6 0.9 2.4 2.4 1.9 4.3-0.2 0.9-0.3 1.7-0.5 2.6-0.2 1-0.4 1.9-0.5 2.9-0.4 4.7 3.8 13.4 7.8 15.9 2.1 1.3 2.9 1.1 3.2-1.3 0.5-4.2 0.9-8.5 1-12.7 0.1-2.8-1.7-5-3.4-7.1-3.5-3.9-3.5-3.9 0.2-7.3z" fill="#BF170F"/>
<path d="m394.8 238.7c-0.9-0.2-1.3 0.1-1.3 1.1 0 1.2 0.7 3.5 1.3 5.2 0.3 1 0.7 2 1.1 3.1 0.2 0.6 0.6 1.1 1 1.6 0.8 0.9 2.1 1.6 3.2 1.8v-9.9c-1.6-1.4-3.4-2.5-5.3-2.9z" fill="#BF170F"/>
<path d="m394.3 174c-1.4-6.4-3.7-12.6-8.1-17.8-0.3-0.4-0.7-0.7-1.1-1-0.7-0.5-1-0.3-0.8 0.5 0.1 0.5 0.3 1 0.6 1.4 4.3 7 6.9 14.6 8.3 22.6 2.6 15.1 5.4 30.1 6.3 45.4 0.1 1.9 0.3 3.8 0.6 5.7v-24.7c-1.8-10.6-3.5-21.4-5.8-32.1z"/>
<path d="m384.5 240.6c-4.9-7.7-7.5-16.3-10.1-24.9-3.6-11.5-4.5-23.3-4.6-35.3 0-3-0.1-6.1 0.1-9.1 0.3-4.4 0.8-8.8 1.2-13.2v-0.7c-0.1-0.4-0.3-0.5-0.6-0.2-0.2 0.2-0.3 0.4-0.4 0.6-0.7 2.6-1.8 5.3-2 8-1.1 11.5-1.1 23.1 0.6 34.6 0.6 4.2-4.3 9.5-8.6 9.5-1.7 0-2.7-0.7-2.9-2.4-0.4-2.5-0.3-5.1 1.3-7.2 1.6-2.3 3.6-4.3 5.4-6.5 0.2-0.2 0.4-0.5 0.5-0.8 0.3-0.4 0-0.8-0.5-0.7-0.4 0-0.7 0.1-1 0.3-4 2.7-8.9 8.7-7.7 15.4 0.5 3 2.1 4.3 5.1 4.3 2.7-0.1 4.9-1.4 6.9-3.1s2.3-1.5 3.1 1c3.3 10.6 5.6 21.7 12.4 30.7 5.4 7.2 11.5 13.9 17.4 20.7v-2.1c-5.7-6-11.2-12-15.6-18.9z"/>
<path d="m397.4 244.3c-3.4-8.5-7.1-16.8-10.1-25.4-1.6-4.7-2-9.9-3-14.8-0.1-0.7-0.3-1.3-0.5-2-0.3-1.1-0.7-1-0.9 0.2-0.1 0.7-0.1 1.4-0.1 2.1 0.2 2 0.6 4 1 6 1.7 12.3 7.2 23.3 12.4 34.4 0.2 0.5 0.6 0.9 1 1.3 0.6 0.7 1 0.5 0.8-0.3-0.3-0.5-0.4-1-0.6-1.5z"/>
<path d="m375.3 150.2c-0.5 0-0.9 0.2-1.2 0.5-0.5 0.5-0.3 1.6 0.3 1.9 0.4 0.2 0.8 0.3 1.1 0.3 0.9 0.1 5.5 0.9 5.7-0.5 0.1-1.1-5-2.2-5.9-2.2z"/>
<path d="m320.4 151.2c-1.7-5.5-4.5-10.6-7.2-15.7-0.5-0.9-1.1-1.8-1.7-2.6-1.9-2.2-3.8-4.5-5.8-6.7-3.2-3.6-6.3-7.2-9.6-10.6-1.4-1.5-3-2.7-4.6-3.9-2-1.6-4.3-2.8-6.1-4.6-1.9-1.8-3.9-3.4-6.2-4.8-1-0.6-2-1.1-3-1.3-1.8-0.4-3.7 0.3-4.2 0.7s-1.4 1.9-1.6 3.5c-0.1 0.9 0 1.8 0.5 2.7 2.6 4.8 4.5 10.1 8.7 13.8 0.5 0.5 0.8 1.2 1.3 1.7 2.2 2.4 4.5 4.8 6.7 7.2 1.7 1.8 3.5 3.5 5.2 5.3 0.5 0.6 1 1.3 1.6 1.7 4.8 2.8 8.2 7.3 12.3 10.9 1.1 1 1.7 2.5 2.9 3.4 1.4 1.1 2.3 2.4 3 4 1.4 2.8 2.8 5.6 3.9 8.5s1.9 6 2.8 9c0.1 0.4 0.2 0.9 0.2 1.3-0.1 2.1-0.2 4.2-0.4 6.3 0 0.6-0.2 1.2-0.4 1.7-1.5 3.7-3 7.3-4.5 11-0.2 0.6-0.4 1.3-0.8 1.8-2.2 2.8-3.3 6.2-4.7 9.4-0.5 1.1-0.4 2.1 0.1 3.2l2.1 5.1c0.3 0.7 0.4 1.6 1.3 1.4 0.5-0.1 1-0.8 1.4-1.4s0.7-1.2 1-1.8c0.5-1 2.2-5.2 3.6-9.3 1.1-3.2 2.3-6.3 3.3-9.5 0.8-2.4 1.4-4.9 1.8-7.4 0.3-2.2 0-4.4 0.4-6.6 1.2-6.3-0.2-12.5-0.8-18.7-0.5-3-1.7-5.8-2.5-8.7z"/>
<path d="m310.9 114.4c0-0.2-0.1-0.4-0.3-0.6-0.1-0.2-1.5-0.6-2.9-1l-2.7-0.6c-1.4-0.2-2.9-0.1-4.3 0.2-1.3 0.3-1.5 1.4-0.6 2.3 0.4 0.4 0.8 0.6 1.1 1.1 1.7 2.5 3.9 3.4 6.9 2.7 2.6-0.7 3-1.1 2.7-3.8 0.1-0.1 0.1-0.2 0.1-0.3z"/>
<path d="m285.8 135.2c-0.3-0.9-0.7-1.7-1.3-2.4-0.3-0.4-1.1-0.6-1.7-0.6-0.8 0-0.9 0.7-1.1 1.4-0.5 2.6 0.2 5.2 0.4 7.7 0 0.3 0.1 0.6 0.2 0.8 0.2 0.4 0.9 1.4 1.8 1.7 0.5 0.2 1.1 0.2 1.6 0 1-0.4 1.5-1.2 1.4-2.3 0-0.5 0-0.9-0.1-1.4-0.3-1.7-0.7-3.3-1.2-4.9z"/>
<path d="m307.1 132.9c-0.6-0.4-1.3-0.6-1.9-1l-1.8-0.9c-1.3-0.6-1.8-1.7-1.7-3 0.3-2.6-0.5-4.8-2.3-6.7-0.5-0.4-0.9-1.1-1.4-1.3-1.2-0.5-1.7-1.5-2-2.5-0.6-2.3-2.1-3.2-4.3-3.7-1.4-0.3-2.8-1.1-4.1-1.8-1.2-0.6-2-2-3.6-1.7-0.2 0-0.5-0.4-0.7-0.6-1.4-2.2-3.4-2.9-5.9-2.8-2 0.1-2.7 0.8-2.7 2.8 0 1.8 3.1 10.8 4.6 11.7 2.6 1.8 4.3 5 7.8 5.6 0.3 0.1 0.7 0.4 0.9 0.7 1.1 1.1 2.2 2.2 3.3 3.4 1.2 1.4 2.7 1.8 4.4 1.5 3.6-0.7 3.6-0.7 4.4 2.9 0.4 1.9 1 3.9 2.7 5.1 2.6 1.8 5.2 3.5 7.9 5.1 1.5 0.9 2 0.5 2.2-1.3 0.4-3.4-2.9-9.7-5.8-11.5z" fill="#fff"/>
<path d="m318.8 154.5c-0.5-0.7-0.9-1.4-1.4-2-0.8-1.1-1.8-2.5-2.5-3.1-0.6-0.5-0.9-0.3-1.3 0.3-1.2 2.5-0.7 6.2 1.2 8.3 0.8 0.9 1.7 2 3.2 1.4 1-0.4 1.6-2.3 1.3-3.7-0.1-0.4-0.3-0.8-0.5-1.2z" fill="#fff"/>
<path d="m315.5 198.4c-0.7 0.5-1.3 1-1.7 1.7-0.7 1.1-0.2 2.6 0.1 2.9s0.8 0.6 1.1 0.6 0.9-0.3 1.3-0.7 0.9-1.3 1.1-2.2c0.1-0.5 0.2-1 0.1-1.5-0.1-1.2-1-1.6-2-0.8z" fill="#fff"/>
<path d="m310.8 153.8c-2.2-2.6-4.5-5.1-7.1-7.3-8.6-7.3-16.2-15.6-24-23.8-4.1-4.4-7.5-9.2-9.7-14.9-0.1-0.3-0.4-0.7-0.6-1-0.4-0.5-0.7-0.4-0.7 0.2 0 0.4 0 0.8 0.1 1.1 1.1 4.9 3.7 9 6.9 12.6 5.8 6.7 12.1 13.1 18.3 19.4 4.2 4.3 8.7 8.3 13.1 12.4 5.8 5.5 8.5 12.5 9.8 20.1 0.7 4.2 0.8 8.5-0.9 12.4-2.6 5.8-5.9 11.2-8.8 16.8-0.7 1.3-1.4 3-1.1 4.2 0.4 1.6 1 3.2 1.6 4.7 1 2.6 1.9 4.6 2 4.6s0.3 0.1 0.6 0.2c0.2 0.1 0.4 0 0.4-0.3 0-0.2 0-0.4-0.1-0.5-1-2.3-2.1-4.7-3.1-7-1-2.1-0.6-4 0.9-5.8 1.2-1.5 2.2-3.1 3.1-4.7 1.9-3.4 3.8-6.8 5.7-10.2 0.3-0.5 0.4-1.1 0.6-1.7 0.9-3.8 1.4-7.6 1.1-11.5-0.9-7.4-3.2-14.3-8.1-20z"/>
<path d="m320.3 143.5c-2.3-8-7.9-14.3-12.6-20.9-1.1-1.6-1.1-1.8 0.8-2.3 1.9-0.4 3.6-1.1 4.9-2.7 1.4-1.8 1.3-3.3-0.3-4.9-3.4-3.7-9.1-3.4-12.4-2.3-0.2 0.1-0.4 0.2-0.6 0.4-0.3 0.3-0.2 0.6 0.2 0.6h0.7c2.1-0.1 4.2-0.4 6.2-0.3 1.9 0 3.4 1.1 4.8 2.4 0.9 0.9 0.9 1.8 0.1 2.8-1.9 2.5-7.2 3-9.4 0.8-6.1-6-12.9-11.1-20.1-15.6-1.7-1-3.7-1.6-5.6-2.3-0.2-0.1-0.4-0.1-0.6 0-0.3 0-0.4 0.2-0.2 0.4l0.4 0.4c2.8 1.7 5.6 3.3 8.3 5.1 1.9 1.2 3.6 2.6 5.4 3.9 7 5.4 13.6 11.1 18.7 18.3 3.9 5.4 7.8 10.7 10.2 17 2.7 7.1 3.7 14.7 5.1 22.1 0.1 0.6 0.1 1.3 0.4 1.9 0.1 0.2 0.2 0.4 0.4 0.5 0.2 0.3 0.5 0.2 0.7-0.2 0.1-0.2 0.1-0.5 0.1-0.7-0.2-1.5-0.6-3-0.9-4.4-1.5-6.5-2.8-13.3-4.7-20z"/>
<path d="m325.3 173.4c-0.1 0.2-0.2 0.4-0.2 0.6-0.4 2.4-0.7 4.8-1 7.2-1.1 6.8-2.2 13.6-4.8 20-1.9 4.5-3.6 9-5.5 13.4-0.4 1-1.1 1.9-1.5 2.9-0.1 0.3-0.2 0.6-0.2 0.9-0.1 0.5 0 0.9 0.2 1 0.1 0.1 0.4-0.1 0.6-0.3 0.1-0.2 0.2-0.3 0.3-0.5 0.8-1.7 1.6-3.5 2.5-5.3 0.5-1 1.6-1.8 2-2.8 3.9-9 7.2-18.1 8.1-27.9 0.3-2.8 0.4-5.6 0.6-8.4 0-0.2-0.1-0.4-0.2-0.6-0.4-0.5-0.7-0.5-0.9-0.2z"/>
<path d="m287.3 136.5c-0.6 1.3 0.5 3 0.5 4.4 0 0.5-0.1 1-0.3 1.4-0.3 0.7-1.3 1.7-2.1 1.8-0.5 0.1-1 0.1-1.4-0.2-0.8-0.4-1.2-1.1-1.6-1.9-1.5-3.3-1.1-6.6-1.7-10 0-0.2-0.1-0.4-0.3-0.6-0.2-0.3-0.5-0.3-0.6 0-0.1 0.2-0.1 0.3-0.2 0.5-0.1 1.7-0.3 3.4-0.2 5.1 0.1 1.4 0.4 2.8 0.9 4.2 0.8 2.2 2.8 4.3 4.1 4.5 0.7 0.1 1.4 0.1 2.3-0.3 2-0.9 2.7-2.9 2.7-5 0-0.9-0.1-1.9-0.6-2.7 0.1-0.1-1.3-1.7-1.5-1.2z"/>
<path d="m316.7 153.2c-4.2-8-8.3-16-14.8-22.5-1-1.1-2-2.2-3.1-3.2-0.4-0.3-0.8-0.6-1.3-0.9-0.8-0.4-1-0.3-0.5 0.4 0.3 0.4 0.6 0.8 0.9 1.2 2.5 2.8 5.3 5.3 7.4 8.3 3.7 5.6 7 11.5 10.5 17.2 0.2 0.3 0.4 0.6 0.7 0.9 0.4 0.5 0.6 0.4 0.5-0.3 0-0.4-0.1-0.8-0.3-1.1z"/>
<path d="m271 98.6c-0.3 0.1-0.6 0.2-0.9 0.5-0.4 0.5-2.1 4-1.3 4.5 0.9 0.5 2.5-2.6 2.8-3.2 0.1-0.2 0.2-0.5 0.3-0.8 0.2-0.5-0.3-1.1-0.9-1z"/>
<path d="m222.3 188.3c-1.6 0-3.2 0.2-4.8 0.7-3.8 1-7.3 2.3-10.7 4.1-3.3 1.7-7 2.5-10.5 3.9-2.8 1.1-5.6 2.1-8.2 3.6-6.1 3.4-12.1 7-18.1 10.6-3.7 2.2-7.4 4.4-11 6.7-1.3 0.8-2.5 1.8-3.6 2.8-6 5.8-12.1 11.4-16.9 18.2-2.5 3.5-5.4 6.9-7.1 10.7-3.6 8-8.2 15.8-9.2 24.6-0.4 3.1-1.7 5.9-2.2 8.9-0.6 3.5-0.8 7-0.7 10.5 0.1 4.3 0.3 8.5 0.5 12.8 0.3 6.7 0.9 13.3 1.2 14.8l0.6 2.7c0.2 0.9 0.6 2 1.4 2.4 1.2 0.6 1.7-0.6 2.4-1.5 1.7-2 3.3-4 5.1-6 1.1-1.3 1.7-2.6 1.5-4.3-0.6-4.8-0.7-9.7-2.6-14.3-0.3-0.8-0.3-1.8-0.4-2.6-0.6-5.4-1.1-10.8-1.7-16.3-0.1-0.8 0-1.6 0.2-2.4 0.7-2.8 1.4-5.7 2.2-8.5 0.2-0.6 0.5-1.2 0.9-1.7 2.5-3.7 4.9-7.5 7.7-10.9 2.8-3.5 6.1-6.7 9.2-9.9 1.7-1.7 3.6-3.2 6-4.1 2-0.8 3.5-2.6 5.5-3.5 7.3-3.3 14-8 21.9-10 1.1-0.3 2-1.1 3-1.7 3.2-1.7 6.4-3.4 9.6-5.2 4.2-2.3 8.4-4.7 12.5-7 0.9-0.5 1.7-1.3 2.6-1.7 7.6-3.5 12.5-9.8 18.2-15.2 1.1-1 1.6-2.1 1.8-3.4 0.4-2.1-0.3-4.4-0.8-5.2-0.4-0.9-2.8-2.6-5.5-2.6z" fill="#fff"/>
<path d="m182.7 194.5c-1.8-0.9-3.9-1.6-5.9-1.8-1.3-0.2-2.7-0.2-4-0.2-2.2 0-4.2 0.1-4.5 0.3s-0.6 0.5-0.6 0.7c0 0.1-0.1 0.3-0.2 0.4-1.6 3.4-1.2 4.2 2.1 6 3.9 2.2 7.4 1.7 10.9-1 0.6-0.4 1.4-0.6 2-1 1.7-1.1 1.9-2.6 0.2-3.4z" fill="#fff"/>
<path d="m199.4 227.2c-0.8-0.2-1.9-0.2-2.6 0.2-1.1 0.7-2.1 1.7-2.8 2.7-1.4 1.9-2.7 4-4 6-0.3 0.5-0.5 1.2-0.8 1.7-0.6 1.4-0.3 2.7 0.9 3.6 0.7 0.5 1.5 0.7 2.3 0.7 1.4-0.1 2.7-1.1 3.2-1.6 0.3-0.3 0.5-0.6 0.7-1 1.5-3.3 3.5-6.5 3.9-10.1 0.2-0.9 0.3-1.9-0.8-2.2z" fill="#fff"/>
<path d="m217.8 195.6c-3.4-1.1-6.6-1-9.5 1.5-0.3 0.3-1 0.7-1.2 0.6-2.2-0.9-3.9 0.6-5.8 1-2.1 0.5-4.3 1-6.5 0.9-3.3-0.1-5.8 0.6-7.7 3.4-0.9 1.3-2 2.4-3.8 2.6-0.9 0.1-1.7 0.8-2.6 1.2-3.4 1.8-5.4 4.4-6.1 8-0.4 1.9-1.5 3.1-3.7 3.4-1 0.1-1.9 0.4-2.8 0.5-1 0.2-2.1 0.3-3.1 0.6-4.9 1.3-12.2 8.6-13.3 13.3-0.6 2.5 0 3.2 2.5 2.5 4.5-1.1 9-2.3 13.3-3.8 2.9-1 4.5-3.4 5.9-5.9 2.7-4.5 2.7-4.5 7.5-2.3 2.3 1.1 4.6 1.1 6.8-0.4 1.9-1.2 4-2.3 6.1-3.3 0.5-0.3 1.1-0.6 1.6-0.6 5.2 0.5 8.9-3.1 13.4-4.6 2.4-0.8 10.7-11.6 11.4-13.9 1-2.7 0.4-3.8-2.4-4.7z" fill="#BF170F"/>
<path d="m146.9 238.4c-1.2 0.4-3.3 2-4.9 3.1-0.9 0.7-1.8 1.4-2.8 2.1-0.5 0.4-0.9 1-1.2 1.5-1 1.7-1 4.5 0.2 5.3 1.8 1.3 3.5 0.3 5-0.7 3.6-2.1 5.9-6.9 5.2-10.6 0-0.7-0.4-1-1.5-0.7z" fill="#BF170F"/>
<path d="m123.3 302.3c-0.6 0.1-1.2 0.5-1.5 1.4-0.3 0.6-0.4 1.3-0.4 2-0.1 1.1 0.2 2.6 0.6 3.3s1.1 1.3 1.5 1.4 1.3-0.1 1.8-0.4c0.6-0.3 1.9-2.1 1.4-3.9-0.4-1.7-2.2-3.9-3.4-3.8z" fill="#BF170F"/>
<path d="m229.2 198.5c-0.5 0.3-0.9 0.7-1.3 1.1-5.5 6.7-12.3 12-20 16.2-14.4 8-28.7 16.3-43.9 22.8-4.6 2-8.9 4.5-13.1 7.1-9.4 5.9-15.6 14.2-19.8 23.8-2.2 5-3.1 10.3-3.4 15.6-0.1 0.8-0.1 1.6 0.1 2.4 1.2 5.2 2.3 10.5 3.6 15.7 0.6 2.5 1.4 5 2.3 7.4 1.2 3 1 5.6-1.3 8.1-2.5 2.7-5 5.4-7.4 8.1-0.2 0.2-0.3 0.4-0.4 0.7-0.1 0.4 0 0.6 0.4 0.6 0.4-0.1 0.8-0.1 0.9 0s2.3-2.3 4.8-5.3c1.5-1.8 3-3.7 4.3-5.7 1-1.5 0.6-4.1 0.2-6-1.7-8.5-4-17-5.2-25.6-0.8-5.7 1.3-11.5 4-16.8 5.1-9.7 11.9-18 22.4-23.1 7.9-3.9 16-7.5 23.8-11.7 11.5-6.2 23-12.4 34.1-19.1 6-3.7 11.5-8.2 15.1-14.3 0.3-0.5 0.5-1 0.6-1.5 0.3-0.8-0.1-1.1-0.8-0.5z"/>
<path d="m222.6 186c-0.3-0.1-0.5-0.2-0.8-0.1-3 0.3-6 0.3-8.8 1.1-12.1 3.3-23.9 7.6-35 13.4-4 2.1-11.3-0.5-12.9-4.5-0.6-1.6-0.3-2.8 1.4-3.7 2.5-1.3 5.1-2.1 7.8-1.5 2.9 0.7 5.7 1.8 8.6 2.7 0.3 0.1 0.6 0.2 1 0.2 0.5 0.1 0.8-0.3 0.5-0.8-0.2-0.3-0.4-0.6-0.6-0.8-4.2-2.7-12.1-5.2-18.5-1.5-2.9 1.5-3.6 3.6-2.5 6.4 1.1 2.6 3.2 4.1 5.7 5.4s2.4 1.6 0.1 3.3c-9.5 7.1-20 13.3-26.7 23.2-5.5 8.1-10.2 16.7-15.3 25.1-1.1 1.8-2.2 3.7-3.2 5.5-0.1 0.3-0.2 0.6-0.1 0.9 0 0.5 0.4 0.8 0.9 0.5 0.3-0.2 0.5-0.3 0.7-0.6 0.6-0.7 0.9-1.6 1.3-2.4 5.2-9.3 9.8-19 16.7-27.5 6-7.4 13.8-13.1 21.6-18.8 10.4-7.6 22.1-12.9 34.2-17.5 3.1-1.2 6.1-2.3 9.3-3.3 4.6-1.4 9.3-2.5 13.9-3.7 0.3-0.1 0.5-0.2 0.7-0.3 0.4-0.3 0.4-0.6 0-0.7z"/>
<path d="m121 266.2c-0.3 0.2-0.5 0.5-0.6 0.8-1 3.8-1.9 7.6-2.8 11.4-2.9 13.4-2.2 26.8-0.7 40.1 0.2 1.5 1.3 2.9 1.6 4.5 0.6 2.6 0.8 5.3 1.2 7.9 0 0.3 0.1 0.5 0.2 0.8 0.2 0.4 0.5 0.7 0.8 0.7 0.2 0 0.5-0.6 0.7-1.3 0.1-0.4 0.1-0.8 0.1-1.2-0.2-1.5-0.8-2.9-0.9-4.4-0.7-6.6-1.2-13.2-1.9-19.9-1-9.5 0.4-18.9 1.8-28.3 0.5-3.3 1.1-6.6 1.6-9.9 0-0.3 0-0.6-0.1-0.9-0.1-0.5-0.6-0.6-1-0.3z"/>
<path d="m203 227.2c-0.2 0.2-0.5 0.4-0.6 0.6-2.3 4.4-3.1 8.9-6.6 12.8-0.8 0.9-1.8 1.8-3 2-1.4 0.2-2.8-0.5-3.6-1.6-0.7-1.1-0.8-2.6-0.4-3.8 0.5-1.9 2.9-3.7 2.6-5.7-0.1-0.7-2.7 0.9-2.9 1.1-0.5 0.5-0.9 1-1.2 1.6-0.5 1-1.6 3.7-1.2 5.9 0.4 2.3 3.3 4.5 5.2 4.7s5.6-1.8 7.6-4.5c1.3-1.6 2.3-3.4 3-5.2 0.9-2.2 1.4-4.5 2-6.8 0.1-0.2 0-0.5 0-0.7-0.2-0.6-0.5-0.7-0.9-0.4z"/>
<path d="m181.3 214.4c-0.8 0.2-1.5 0.4-2.2 0.7-2 0.9-3.9 2.1-5.8 3.2-11.9 6.2-21.1 15.4-30.4 24.5-0.4 0.4-0.7 0.9-1 1.4-0.4 0.8-0.1 1.1 0.6 0.6 0.5-0.3 0.9-0.6 1.4-1 7.4-6.4 14.5-13 22.2-19 4.2-3.3 9.3-5.6 14-8.4l1.8-1.2c0.8-0.7 0.6-1.1-0.6-0.8z"/>
<path d="m230.5 187c-0.7-0.3-1.8 0.3-1.8 0.9 0 0.4 0 0.8 0.1 1.2 0.2 0.9 1.1 5.6 2.6 5.2 1.3-0.3 0.5-5.5 0.1-6.4-0.2-0.4-0.6-0.7-1-0.9z"/>
</svg>