<?xml version="1.0" encoding="UTF-8"?>
<svg viewBox="0 0 548.08521 768.04736" xmlns="http://www.w3.org/2000/svg">
 <g transform="matrix(.3 0 0 .3 -48.615 -62.725)">
  <path d="m1333 797.92c-1-3-122-30-122-30l-78 148-3 57 45-23 96 22 13-18 3-75 29-59z" fill="#f4b44a" fill-rule="evenodd"/>
  <path d="m1862 1195.9 122 58-2 61-4 9-143-66-2-8 15-8-9-34 14-4z" fill="#fad23f" fill-rule="evenodd"/>
  <path d="m1618 1092.9 128 55-5 26-26 1 8 36-106-47 1-36-9-18z" fill="#fad23f" fill-rule="evenodd"/>
  <path d="m1209 908.92 65 32 1 20-9 8-78-23 6-19z" fill="#fad23f" fill-rule="evenodd"/>
  <path d="m620 650.92 507 221-36 64-505-220 9-42z" fill="#fad23f" fill-rule="evenodd"/>
  <path d="m520 598.92-101-40-22 13-17 51 109 49z" fill="#fad23f" fill-rule="evenodd"/>
  <path d="m688 677.92 40-106-9-20-62-26-73-4-107 230-36 74-50 138-42 103-152 394-23 64 115 100 130 83 128 53 106 28 92 13 32-98 22-72-24-7-15 1-16-11-33-1-18-8-2-16 9-28 19-70 32-36 12-47 19-75 24-70 29-42 29-31 2-20-24-34 15-25 28-32 10-23 62-37 39-38 47-37 48-5 2-5-502-218-1-30 18-33 19-2z" fill="#f4b44a" fill-rule="evenodd"/>
  <path d="m733 2517.9-16 19 26 21 10 41-50 30-66 14-10-10-32 15 2 14 38 5 85 1 1 22-57 24-53-5-31 33 6 12c54.246 23.126 111.76 12.477 174-47 47.767-0.5181 85.499-12.895 104-48l4-32-9-39-41-44-42-17-30-5z" fill="#fef691" fill-rule="evenodd"/>
  <path d="m1619 2441.9 21 4-1 18-17 20 4 52 38 2 58-17-10-29h25l25 34-10 20-85 18v24l33 6 77-14 38 7 24-14-29-68 22 15c29.971 37.433 33.681 68.897 5 93-43.933 21.701-103.87 15.403-169 0-47.971 5.9186-103.06 31.78-139 4l-1-16 21-16-9-8-20-11 6-23z" fill="#fef691" fill-rule="evenodd"/>
  <path d="m854 1585.9-8 1v19l-6 5-9-2-8 15-28 13-6 37-14 51-33 76-13 52 1 29-2 58-11 120 6 78-30 128 1 33 22-4 43-18 62 16 44 33 54 43 55 36 15-2 19-206 39-229 41-132 47-112 2-22-21 11-17-12-55-10-38-12-63-26-79-53z" fill="#345a7c" fill-rule="evenodd"/>
  <path d="m1269 1707.9 53 177 46 156 16 54 4 47 31 116 16 18 73-72 11 4 73 39 14-10-34-197-20-37v-65l-19-112-37-51-50-102-32 16-28 8-49 5z" fill="#345a7c" fill-rule="evenodd"/>
  <path d="m1040 949.92-30 25-26 21-9 25-40 8-45 36 18 5c28.645-0.5602 90.08 45.932 90 110-8.9729 67.67-6.7432 136.74-35 202l-53 35-36 10c-19.535 28.622-21.79 21.748-46 49l14 29.5 37.5 19.5 59.5 35c12.996 9.381 31.525 16.928 43 18.5l16 6.5 65 6 12 5 22 27 16 4 35-3 74-21-32-21-56-51 45-68 26-54 8-54 16-64 10-54-1-29-37-24-1-27 15-81-25-17-19-32-45-59-54-23z" fill="#345a7c" fill-rule="evenodd"/>
  <path d="m1609 1167.9-17 52-15 43-38 13-12 4-8 44-20 37-45 97-78 117-68.095 42.014 12.095 7.9865 30 2 43-5 15-9 13-13 16-3 32-28-2 15 20 6 47 35 19 9 18 47 39 6 55-1-22-51-46-111 19-40 47-104 29-66 10-21 16-7 51 19 5-23-14-30-28-18-15-24-55-25-25-16z" fill="#345a7c" fill-rule="evenodd"/>
  <path d="m1620 1068.9 33 4 38 22 25 40-86-38-13-8z" fill="#345a7c" fill-rule="evenodd"/>
  <path d="m745 2287.9-48 21v14l17 41 34 18 4-20z" fill="#9aa669" fill-rule="evenodd"/>
  <path d="m912 2367.9-24 49 29 23c179.24 163.06 362.76 135.23 550-59l-34-92-17 4-58 60-18-7-86-434-107 5-89 523-78-35z" fill="#9aa669" fill-rule="evenodd"/>
  <path d="m1244 1419.9 62-2-42 55 27 52 98-99 35 19-80 90-83 55-43 20-8.5597-5.206-7.1903-13.794 42.75-24-32-46z" fill="#9aa669" fill-rule="evenodd"/>
  <path d="m874 1087.9c-21.357 25.917-54.378 50.435-12 84l13-7 3-16 23-17 18-10 19-20 20 21c10.739 22 20.739 44 21 66l-3 64-19 2c-19.031 60.818-43.022 119.16-78 172l28-9 49-33c18.756-22.004 64.918-208.3 28-262-31.579-41.175-65.237-70.293-110-35z" fill="#9aa669" fill-rule="evenodd"/>
  <path d="m1782 1333.9-14 24-20 23-21-49-16-8-22 49c-12.436 25.559-61.319 114.3-58 122l27 38 10 35 31 21 33 5 4 12 28 18-9 30-32 43-53-3-12-15-60-152 6-24 49-96 42-98 16-20 13-1 48 23z" fill="#9aa669" fill-rule="evenodd"/>
  <path d="m1272 970.92-1 51c4.1725 27.028 13.794 52.573 17 82l24 43 21 14c41.601 77.127 118.72 43.627 153 34l31-12 38-39 22-46 16-4 2 22 19-3 7 22-26 70-19 60-65 15-111 15-43-3-111-73-47-38 13-51 3-56-16-7-71-94 42-21 57 4z" fill="#9aa669" fill-rule="evenodd"/>
  <path d="m1278 956.92 32-2 21 12c128.65-35.193 203.95-6.0603 242 68l20-2 21 6 35-88 13-25c-78.036-149.61-222.34-168.24-346-115l-26 65z" fill="#9aa669" fill-rule="evenodd"/>
  <path d="m1461 1296.9-52 136 3 14 45 2 10-11 35-83 22-78z" fill="#f58b5b" fill-rule="evenodd"/>
  <path d="m1241 1211.9-1 38-29 118-13 46 48 10 23-2 33-127 1-39z" fill="#f58b5b" fill-rule="evenodd"/>
  <path d="m929 1099.9-8 21-13 7-17 7-15 25-10 22-7 17-27 23-31 45-27 92-13 58-13 42c-42.23 43.256-40.129 73.846-47 107-13.107 13.766-16.866 28.57-6 45l19 5 13-6 19 3 10 13 25-1 12 9 22-9 17-19 15 3 1-12-5-12 6-31-8-15-2-48-8-17 13-10 38-43c37.031-49.818 53.928-109.7 76-167l18-5 4-21v-47c-1.019-38.623-20.699-63.673-51-81z" fill="#f6cab0" fill-rule="evenodd"/>
  <path d="m1700 1345.9-11 24-51 106-11 15 19 27 13 10c3.9674 78.489 80.674 69.821 121 50l58-68 30-85 9-70-2-51 19-17-60-31 5-9 10-10-11-30 16-4 8-9 14 8 5-8-6-17-20-4-7-12-22-3-9-10-20-6-7-7-29 1-12 11-8 28-22 1-2 5 7 17 9 35 21 15 14 15 9 26 23 14-2 15-10 12-20 30-17 21-8-7-10-22-16-24-13-1z" fill="#f6cab0" fill-rule="evenodd"/>
  <path d="m1317 953.92-33 5c-15.452 22.969-14.978 43.664-12 64-0.22 35.39 8.4921 63.943 19 86 11.828 19.505 15.109 47.557 44 50 20.741 71.166 99.228 52.383 141 36 23.055 5.7717 42.368-18.392 63-32l42-72 17 25 12-3c-1.2427-30.626 27.216-80.557-22-80l-15 6-15-29c-52.781-66.833-126.78-65.755-206-48l-35 5z" fill="#f6cab0" fill-rule="evenodd"/>
  <path d="m923.5 1552.4-26.5-18.5-25.5-18.5-26.5-9.5-7 1 3 33 8 15-2 17-4 15 17-2 25 27 35 19 36 25 50 21 43 13 53 9 16 10 18-2 93 4 93-10 62-3 28-7 36-25 18-12-32-12 16-19 5-15-4-12-27 4-17 15-16 8-66 5-61-8-25.949-14.33-45.051 3.3301-14 9-32 7-40 1-19-8-23-25h-22c-42.095-10.108-85.113-18.83-119.5-40.5z" fill="#f8fbf3" fill-rule="evenodd"/>
  <path d="m1187.9 1711.4 16.263 0.7071 46.316 211.42-9.5459-0.7071-7.0711-0.3535-15.203-34.648-33.234-154.5 3.8891-21.213z" fill="#1a1a1a"/>
  <path d="m1590.3 2396.9 3.5355 7.0711-9.1924 9.1924-57.983 20.152-7.4246-8.1317 17.324-16.264z" fill="#1a1a1a"/>
  <path d="m758.02 2451.7 4.9498 12.374-7.3192 6.8193-20.258 37.375 6.0104 10.607 19.799 3.5356 29.345 12.728 12.728 2.4749 8.8388 6.7175 11.314-10.607-33.234-24.395-46.316-3.182 13.081-28.284 31.466 12.021 24.395-2.1213 0.35355-16.617-44.548-8.4853 17.324-6.0104 34.648-12.728-4.9498-12.021-13.789 0.7071z" fill="#1a1a1a"/>
  <path d="m1274 979.92c0.059 5.3175 1.3376 8.9274 8 5l26-18 8.5-12-22.5 1-20 17z" fill="#f2e4d3" fill-rule="evenodd"/>
  <path d="m1355 966.92c28.443 15.883 73.345 1.5897 80.5 56.5l-3.5 27.5-3.5 7h-20l-7 12 5.5 10.5 8.5 4 10 16 17.5 4 13.5-9.5 18 4 9-12c-4.3201-3.8399-8.8515-7.5743-21-7.5-34.176 12.487-15.939-20.887-10-43.5-3.2449-28.438 15.144-28.03 35.5-25l33.5-6 25 8.5 6-6.5c-48.996-62.679-120.57-58.812-194.5-48z" fill="#f2e4d3" fill-rule="evenodd"/>
  <path d="m1325.5 1154.4c-31.53-13.005 63.353-27.179 75-27.5 28.41 1.3158 43.892 2.3796 64.5 31 49.553 46.524 75.072-9.2576 95.5-88.5l-1.5 55-35.5 55-55 19c-24.622-29.017-55.9-37.875-85.998-43.015-30.987-5.2921-34.667 28.972-57.002-0.985z" fill="#f2e4d3" fill-rule="evenodd"/>
  <path d="m1417.5 852.41c-5.4261-0.0243-5.9796 2.6093 4.5 10.5 0.7287 3.5925 7.9734 4.3924 18 4 18 4.886 36 1.895 54 2 7.3051 5.845 3.5361 6.9441 2 9-11.15 2.97-8.898 6.8204-14 11-5.9784-1.3766-11.744-3.1782-19-2-22.148-3.18-11.596 8.8999-16 14l4.5 17c-3.1552 3.3227-4.755 11.907-6.5 20-3.2815 7.0106 1.0409 8.5898 7 9 24.995 0.50241 34.676 7.4118 52.5 11.5 13.494 13.984 15.179-1.5525 21.5-5.5l24-34c0.5189-6.6667-9.0419-13.333-16-20-15.442-5.3879-19.861-5.2639-28-7-4.4727 0.4727-5.4719-2.5281-6-6 4-3.9279 8-8.2377 12-7l4-2 41 20c9.9782 1.2125 7.6685-3.0362 6-7-10.167-10.938-20.333-13.29-30.5-19.5-12.716-2.8632-17.331-4.0653-23.5-3-3.5094-2.7303-2.012-2.5848-15-6.5-18.528-1.187-41.219 0.74732-55-4-8.13-2.3891-16.712-4.4786-21.5-4.5zm44.719 41.438c2.5802-0.0512 7.1179 0.39825 14.781 1.0625l35 10 16-0.75c3.9545 3.9167 7.3033 7.8333 6 11.75l-11 21c-2.6146 7.027-8.096 8.8938-14 10-13.753-3.3827-22.315-7.8038-42-10-2.9958-4.9101-9.1457-5.7651-8-16l2-16c-0.6794-8.369-4.4578-10.95 1.2188-11.062z" fill="#f2e4d3" fill-rule="evenodd"/>
  <path d="m1497.5 915.92c-5.4167-2.3784-10.833-1.0113-16.25-1.5-5.3925 2.9392-3.8595 7.161-0.5 7.25 6.2135 2.03 10.612 0.13855 12.25 3.75 6.4392 6.2179 15.75-3.2081 4.5-9.5z" fill="#f2e4d3" fill-rule="evenodd"/>
  <path d="m1581 1050.9c4.3067 21.678 12.808 17.834 21 12l13-1-8.5-29-25.5 1.5z" fill="#f2e4d3" fill-rule="evenodd"/>
  <path d="m895 1211.9 32-27c-9.1768-7.8754-14.535-20.842-31-19-9.6512 16.664-10.015 32.002-1 46z" fill="#f2e4d3" fill-rule="evenodd"/>
  <path d="m765 1453.9c19.367-6.0628 31.432-169.86 97-200 12.005-19.575 11.242-30.03-14-23l-7-12-35 42-27 83-17 63-14 50z" fill="#f2e4d3" fill-rule="evenodd"/>
  <path d="m705 1560.9c8.5179 2.3559 18.355 3.9206 14 14 9.6518 3.6816 17.933 8.7333 30 10 12.623 5.2899 18.325 3.658 26 4l20-1 14-19 9 4 6-12c7.3153-53.829-3.0384-79.892-14-105l25 22 5 32 1 28 8 18-5 31 4 20-18 3-10 15-25 8-15-7-18 2-17-16-19-5-9 7-19-5-10-15 10-22z" fill="#f2e4d3" fill-rule="evenodd"/>
  <path d="m1697 1352.9c8.947 16.633 36.779 30.094 21 49l-8 23c-5.1443-14-15.67-28-26-42z" fill="#f2e4d3" fill-rule="evenodd"/>
  <path d="m1728 1185.9 23 29 8-9-18-28-25-5 1 8z" fill="#f2e4d3" fill-rule="evenodd"/>
  <path d="m1663 1525.9c28.003-22.257 12.152 7.7261 25 33 22.05 2.603 42.349 19.206 72-39l29-44c32.546-23.588 11.102 33.823-11.608 61.235-7.8815 9.5131-19.65 20.51-43.392 30.765-9.0731 6.8539-24.959 0.082-39-3 5.8855 5.9714 5.3686 10.342-10 11l-20-22-10-23z" fill="#f2e4d3" fill-rule="evenodd"/>
  <path d="m1072 1030.9c14-1.2104 28-7.5082 42 1l13 15c5.5864 6.0652 14.473 12.497-3 16l-24 12-13 1c-15.266-22.09-42.892-29.311-15-45z" fill="#beb2ac" fill-rule="evenodd"/>
  <path d="m949 1029.9 2 12-1 9 115 129c52.105-26.473 99.894-47.192 144-63l-4 73-24 18 48 56-10 64-25 3c-37.483-45.878-74.906-91.715-128-148-20.458 11.312-42.24 20.64-68 24 2.2217-23.703 1.7582-45.617-4-64-21.574-35.302-45.385-68.883-101-78l39-32z" fill="#beb2ac" fill-rule="evenodd"/>
  <path d="m1053 1292.9-34 22 21 33 42-25z" fill="#beb2ac" fill-rule="evenodd"/>
  <path d="m962 1386.9c19.373 20.491 40.372 47.486 61 73 63.625-33.832 128.04-78.728 193-107l-23 85-53 29c-10.617 8.4123-11.155 4.8452-2 14l17 21 57 105-68 18 2-14c-40.25-47.542-82.131-87.744-120-146l-15 9c-3.8517 7.6983-10.74 19.328-0.711 29.43l-14.546-24.155-53.744 31.725-18.73 13.126-29.27 16.374-33.392-30.43-20.695-4.9734-0.68703-13.347-6.9819-18.732 11.141-10.735 13.614 12.216 30-12.5 24-12c11.374-5.6353 16.265-1.9533 5-10l-16-17z" fill="#beb2ac" fill-rule="evenodd"/>
  <path d="m1604 1196.9 48-15 68 30 22 29 22 12 10 30-1 26-36-19 32-8-24-37-18-13-18 11c-18.188 2.411-3.7201 18.985 1 31l10 11-24 16-19 44-55-104c-7.1736-21.869-6.3459-21.915-23-35z" fill="#beb2ac" fill-rule="evenodd"/>
  <path d="m1515 1319.9 38-8 15-3 9 9 15 31-18 11-27 2-22-28z" fill="#beb2ac" fill-rule="evenodd"/>
  <path d="m1474 1423.9 27 36 12-1 129-37-17 36-24 55v12l16 50 19 43 11 38-24 7h-6l-100-185-13-13-7-2-55 15 17-27z" fill="#beb2ac" fill-rule="evenodd"/>
  <path d="m884 1614.9 81 114c17.384 23.637 5.5562 5.7507-116 94l-47 32-15 6-38-57 27-91 18 33c11.706 29.853 43.019-11.591 60-24 13.756-9.3763-16.511-37.766-24-49-7.2562-9.7194-6.6702-4.8866-17 2l-28 19v-21l14-37 18-10 11-18 19 1 2-9-5-11 11-2 24 20z" fill="#beb2ac" fill-rule="evenodd"/>
  <path d="m1062 1693.9c-22.851 15.483-48.916 27.75-67 48-7.5514 6.8336-4.471 5.6046 2 13 39.386 49.346 55.019 71.545 77 101l34-84c-24.661-16.708-11.578-16.13 11-25l20-39-12-3-15 6-5-12z" fill="#beb2ac" fill-rule="evenodd"/>
  <path d="m961 1870.9-29 16-7 8 6 10 8 17 11 10 9-7 30-14 3-12-25-24z" fill="#beb2ac" fill-rule="evenodd"/>
  <path d="m791 1880.9-59 43-6 104 38-30 16-19 41 55v5l-39 31-9 6-12-9-16-23-13-13h-7l-8 55 4 55 37 35 2 1 103-80 9-12 42-24 15-14-7-9-21-25-90-115z" fill="#beb2ac" fill-rule="evenodd"/>
  <path d="m712 2213.9 36-22 9-1 9 9 95 115-78-39-49 8-30 17-10-7 10-74z" fill="#beb2ac" fill-rule="evenodd"/>
  <path d="m899 2347.9 22-11 58-53 11-14-2 109-2 27-18-3z" fill="#beb2ac" fill-rule="evenodd"/>
  <path d="m887 2189.9 30-18 4-2 6 6 18 17 4 6-2 6-22 22-8 7-10-8-21-26-6-8z" fill="#beb2ac" fill-rule="evenodd"/>
  <path d="m1037 1987.9-6-1-81 50-8 6 9 9 60 66 27-98z" fill="#beb2ac" fill-rule="evenodd"/>
  <path d="m1306 1705.9 11 12 48 51 9 14-10 6-54 31-22-77-12-10-6-21 13-8z" fill="#beb2ac" fill-rule="evenodd"/>
  <path d="m1334 1917.9 27-20 6-2 5 5 18 32 5 7-6 7-30 21-8 10z" fill="#beb2ac" fill-rule="evenodd"/>
  <path d="m1516 1970.9c-72.487 76.446-77.04 55.132-124 102l-12 12 15 67c41.939 44.466 53.526 55.545 70 72l4 21 46-42 84 48 6-21-12-97-20-65-8-39-26-24-23-34zm-5.6562 96.594c1.7109-0.024 4.1006 2.6385 10.656 7.4062l30 42c3.8065 12.048-0.7092 10.084-11 18l-33 26-40-35c-11.066-8.6633-6.2155-6.9414 3-18l32-29c5.3343-7.895 6.4047-11.379 8.3438-11.406z" fill="#beb2ac" fill-rule="evenodd"/>
  <path d="m1472 1728.9c-23.894 9.8778-44.633 26.067-66 41-20.984-0.1392-18.435 25.24-1 34l54 71 33 31 34 31c10.848 12.48 8.3609 3.6949 14-10l7-65-40-78z" fill="#beb2ac" fill-rule="evenodd"/>
  <path d="m857 1507.9 4 21-7 16 2 15 6 6-2 21 28 23-13-73 4-12-7-16c-5.9109-0.713-13.864-2.9853-15-1z" fill="#3971aa" fill-rule="evenodd"/>
  <path d="m975.5 1572.9c-11.671 2.9958-34.729-15.395-44-18l-28.5-16-9 3c2.0182 25.571 16.189 61.268 4 75l30 15c-0.68187-27.672-15.149-55.938-11-80l21 17c-2.8082 21.122 10.732 42.251 13 73l17 5c-0.33713-34.462-12.614-55.513-13-78l27 15c0.0693 22.468 5.9718 46.88 14 72l-3 16 26 12 1-19-3-8-14-70 14 4 10 20 10 51 7 22-5 2 25 5c-5.8393-3.3214-8.7183-12.563-12-21l-9-59v-19l14-1 2 24 11 29 5 27 4 23 24 1-3-11-10-10-14-35 18-17c-25.942-25.659-13.077-23.116-31-33.5l-35.5-0.5z" fill="#3971aa" fill-rule="evenodd"/>
  <path d="m1099 1627.9 5 31 6 33 5 22 15-20-10-39-5-14 1-13z" fill="#3971aa" fill-rule="evenodd"/>
  <path d="m1129 1629.9c9.8865 9.9432 10.643 15.321 10 20l11 29 14 29 12-1-7-13 3-9-18-9 4-7c-8.0136-8.3333-3.0341-16.667-1-25l-9 1c-10.533-6.6667-6.1696-13.333-7-20z" fill="#3971aa" fill-rule="evenodd"/>
  <path d="m1153 1625.9 10 19 14 19 12 21 8 22h18l-10-18-7-14-12-18-17-20-10-15z" fill="#3971aa" fill-rule="evenodd"/>
  <path d="m1176 1619.9 7 13 12 15 11 19 2 15 18 4 3 9-1 7 20 2-5-12v-6l-9-1-1-10-7-5-9-15 1-7-5-5-6-4-5-8-20-13z" fill="#3971aa" fill-rule="evenodd"/>
  <path d="m1197 1607.9 35 44 16 18 26 36 18-3-18-20-15-22-19-27-13-25z" fill="#3971aa" fill-rule="evenodd"/>
  <path d="m1248 1617.9 3 8 15 24 25 24 17 29 15-6-21-20v-11l-21-23-8-4-1-16z" fill="#3971aa" fill-rule="evenodd"/>
  <path d="m1284 1625.9 15 12 7 13 15 20 3 8 17 16 20-4-13-9 22-29 24-22 6-14-31 4-10 8-4 13h-7l-5 11-7 6-22-16 9-15z" fill="#3971aa" fill-rule="evenodd"/>
  <path d="m1361 1690.9 26-26 1-8 11-5 7-7 2-11 14-9 12-16-8-10 22-2 6 10-4 14-18 17-6 1-7 24-14 3-16 25-18 9z" fill="#3971aa" fill-rule="evenodd"/>
  <path d="m1326 859.92c27.872 4.747 20.322-0.014 48-12 99.746-16.413 173.76-3.7397 235 86h4c-4.1704 18.561-8.696 37.595-9 51-4.8516 7.126-9.6596 14.269-8 24-4.1867 8.0933-8.9559 16.478-8 22 10.082 3.3732 14.006-18.732 19-34 6.7066-20.2 28.911-47.537 13-57-17.528-63.753-93.789-97.845-118.5-106-39.962-5.4741-102.62-7.6569-170.5 14-15.895 7.4223-11.734 10.4-5 12z" fill-rule="evenodd"/>
  <path d="m1326 868.92c4.3232 19.069 8.1003 37.688 1 58-1 7.8902 1 17.837 0 24.5l-2 11.5-13 9c-2.6852-11.491-0.3013-25.516 5-41 2.514-18.032-8.8313-21.715-2-39l5-25c0.5847-12.104 3.617-14.325 6 2z" fill-rule="evenodd"/>
  <path d="m1324 957.92 15 1c88.948-15.338 169.54-25.448 231 56 8.5991 14.647 21.154 30.425 12 40-21.927-31.044-36.64-62.511-102-91-51.311-9.5686-93.995-7.0598-132 2l-28 7-2-8z" fill-rule="evenodd"/>
  <path d="m1271 983.92c2.315-52.013 7.247-102.16 28-141 16.626-82.51 161.92-67.152 208-59 81.478 22.849 108.04 48.768 155 136 2.7332 7.96 6.2047 16.215-4 19-4.9137 49.044-31.83 86.717-41 101-13.142 1.3836-30.64-5.9465-39 5v-11l14-5 19 5c12.273-30.464 27.196-60.046 32-93l8-7c-24.384-61.868-63.892-112.93-144-135-57.71-11.258-139.62-21.267-184 23-19.85 23.85-48.232 102.23-24 87 9.8188-9.1425 19.957-18.817 22-15l-1 15c-12.967 11.62-49.172 46.996-24.207 45.985 3.6631-0.14834 14.3-2.1407 19.45-6.1672 0.9028-2.88-0.2744 12.932-1.7894 10.697-1.8387-2.7126-12.221-3.248-14.217-2.3573-11.216 5.0037-22.228 12.68-28.236 26.842z" fill-rule="evenodd"/>
  <path d="m1267 974.92c-8.994-4.9919-10.882-0.50951-12 5l-11-3c-21.076-9.8474-41.759-20.481-68-20l-13 10-25 9c22.619 29.106 55.441 59.345 56 86l18 10v11c-30.667-24.958-61.333-70.159-92-107 5.2138-7.1094 15.471-15.228 34-25 14.667-12.786 29.333-8.6789 44-6 21.585 7.3333 45.45 14.667 75 22 1.3584 8.6372 1.0531 14.317-6 8z" fill-rule="evenodd"/>
  <path d="m1271 988.92c-15.989 9.9448-34.389 31.947-53 55-16.639 8.5696-4.6951 29.596-19 103-3.0413 22.542-14.408 48.651 18 56 161.69 119.48 135.53 107.89 345 72 31.516-1.3936 22.216-19.113 30-30 9.1504-25.183 10.39-58.277 29-74 13.126-35.608 5.8185-42.026 1-52-11.025-7.1069-3.1436-17.365 1-27l-17 21c3.322 9.6667 11.985 19.333 3 29-17.337 41.139-21.679 64.083-26 87-6.0995 32.686-16.626 36.599-28 35-37.076 15.515-157.87 32.808-181.27 24.961-32.088-10.762-68.483-32.258-123.73-77.961l-28-23c-26.198-4.8291-6.7408-36.29-4-58 17.234-44.979 25.482-47.975 3-70 16.667-21.524 33.333-44.184 50-71z" fill-rule="evenodd"/>
  <path d="m1289 1123.9c8.506 26.247 6.3215 50.374 37 79l5 12c-42.899-26.645-40.232-59.521-57-91-6.1458-16.292-7.0139-51.028 15 0z" fill-rule="evenodd"/>
  <path d="m1551 1172.9c-24.851 26.739-46.7 41.467-69 58 6.075 3.1083 13.26 2.8865 22-2 17.431-4.6043 27.802-21.51 45-42 7.454-2.9698 5.0093-8.4144 2-14z" fill-rule="evenodd"/>
  <path d="m1478 1009.9c3.8471 12.455 21.637-6.8259 48 2 10.957 5.3318 29.382 18.581 20-5l-20-4c-19.763-0.9255-30.15 1.0498-48 7z" fill-rule="evenodd"/>
  <path d="m1426 990.92c-10.854-20.094-48.479-29.878-59-22-7.4645 11.707 7.8825 9.1568 21 8l23 8c4.1746 9.1894 8.8731 1.945 15 6z" fill-rule="evenodd"/>
  <path d="m1468.7 1040.3c15.144-11.464 10.119 1.7226 9.1924 9.8995-10.002 4.5013-11.994 12.371-4.9498 24.042 1.5917 8.011-15.893 6.7662-15.556-2.8285 1.7179-9.1976-2.4877-15.01 11.314-31.113z" fill-rule="evenodd"/>
  <path d="m1478.6 1085.6c1.2467 5.9975-2.1504 12.841-14.142 9.1924l-5.6568 6.3639c11.669 1.3982 27.061 6.6623 26.163-12.021 0.1977-18.277-7.0678-11.346-6.3639-3.5355z" fill-rule="evenodd"/>
  <path d="m1422 1086.3c3.3658 18.286 24.092 15.128 27.577 8.4853 12.728-12.964 27.813-8.0137 7.0711 12.728-18.486 2.5371-35.793 2.5194-43.134-19.092-8.1444-11.102 6.7172-19.799 8.4852-2.1213z" fill-rule="evenodd"/>
  <path d="m1441.1 1029.7c6.6639 12.153-5.0149 20.24-7.7782 32.527-3.4075 6.5253-6.4513 6.1389-9.1923 0-19.161-4.5566-25.575 10.47-12.021 15.556l2.1214 7.7782c-12.234 5.0551-33.992-24.97-0.75-32.234 10.4-0.1939 13.699 5.6763 17.72-8.7782l0.7071-12.728c0.6138-6.4912 2.1342-15.158 9.1924-2.1214z" fill-rule="evenodd"/>
  <path d="m1380 1114.9 17.293 4.2322c24-4.9961 47.293 10.536 69.525 28.768 10.768 16.308-4.6262 20.625-6.9393 4.5251-14.603-10.39-23.248-22.303-52.879-24.525-7.8837 5.3883-24.541 8.5438-27-13z" fill-rule="evenodd"/>
  <path d="m1504 1046.9c-16.118 15.061 3.9988 8.4708 13 8 4.2822-1.6376 14.836 5.1066 13.5-8.5 1.7979-12.58-18.013-5.3164-26.5 0.5z" fill-rule="evenodd"/>
  <path d="m1393.7 1014.3c6.7956 3.6533 9.3161 9.2513 8.4852 15.38-1.6292 14.132-11.74-8.0193-19.799-6.3639-25.508-2.2223-9.5367-25.112 11.314-9.0156z" fill-rule="evenodd"/>
  <path d="m1301 1104.9c5.5647 24.402 13.048 46.611 37 50l4 11c12.068 35.082 76.726 60.714 132 24l12 2c31.958-4.5635 50.701-38.948 67-67l-2.2322 28.464c-18.735 18.735-38.379 41.891-70.768 46.536-77.238 32.428-143.46 2.5949-153-42-23.449-1.149-28.769-31.303-40-52 2.4964-10.461 3.8257-26.369 14-1z" fill-rule="evenodd"/>
  <path d="m1309 962.92c-10.333 3.6861-17.667 8.946-28 23-1.9069 5.774-3.2485 16.562 5 4 9.0809-16.011 15.333-15.436 23-19 12.59-5.5036 9.8732-12.688 0-8z" fill-rule="evenodd"/>
  <path d="m1277.4 971.03c-4.0969 13.109-6.3916 28.021-6.7175 44.901l5.6568 4.5962-8.1317 3.1819c-2.8207-8.3374 1.439-32.251 2.8284-49.851z" fill-rule="evenodd"/>
  <path d="m1603.7 1038.2c10.656 17.901 11.027 41.615 0 71.771l-8.1317 0.3535c0.474 7.696 1.1883 15.052 12.728 7.0711 23.31-32.614 10.885-54.507 7.7781-79.196z" fill-rule="evenodd"/>
  <path d="m1597.4 1055.2 1.4142 18.738c-1.1626 6.0582-2.8445 10.558-4.9497 13.789l-6.7175 1.7678 8.1317 20.86-0.7071-10.253c4.068-6.9659 5.4879-13.381 9.1924-25.809 4.0299-0.9658 7.1438-1.0156 10.253-1.0607 2.8943-21.869-30.245-29.508-16.617-18.031z" fill-rule="evenodd"/>
  <path d="m1311 963.25c-21.905 50.596-47.752 69.387-73.539 73.539l16.97 1.4142c-7.7919 7.1444-15.91 10.022-24.042 12.728 11.448 0.3319 22.002-4.6928 32.527-9.8995-6.6133 10.362-20.687 15.75-32.527 22.628 21.613-5.5111 36.796-14.881 54.094-22.981-7.1143 10.911-29.733 21.853-41.366 30.052 19.575-3.5191 32.848-15.862 48.083-25.456-8.895 13.331-23.414 23.287-36.77 33.941 23.922-4.5999 39.087-23.793 57.983-36.77-14.88 19.872-32.63 36.674-51.265 50.912 21.642-9.5824 39.799-25.104 56.922-41.012-8.2495 15.394-17.392 28.414-27.224 39.598 23.526-13.727 44.438-40.8 60.458-96.52 4.3418-19.622-1.9741-27.395 16.263-37.83l-41.366 6.7175z" fill-rule="evenodd"/>
  <path d="m1556.3 1017c4.2926 45.48 3.239 84.851-5.6568 115.26-7.1884 15.242 1.9619 24.172 4.2426 45.255 2.1771-10.01 2.5571-21.676 9.1924-27.577 1.9514 6.9395 7.1612 12.666 10.96 15.91-4.6593-7.3225-5.751-13.753-6.7176-20.152 4.8497 7.0032 8.58 14.566 16.971 19.799l-2.1213-11.314c-8.1854-8.9888-9.8625-21.232-10.607-33.941 3.5879 12.875 10.089 23.419 18.385 32.527-5.3986-11.482-10.54-23.273-11.314-40.305 6.2825 13.102 11.897 27.987 20.86 33.941-9.4626-15.085-11.72-30.17-15.91-45.255 6.0086 14.675 11.572 30.018 21.213 39.244l-3.182-26.516c-11.722-0.3097-4.9623-14.627-6.3639-24.395-12.016 1.1704-11.502-22.858-13.082-39.952z" fill-rule="evenodd"/>
  <path d="m1115 949.92c-3.0783-11.429-35.421-11.884-58-16-35.748-3.3807-28.063 11.574-47 30-20.176 8.1378-32.191 31.761-54 44-12.614 16.759-13.679 25.065 24 10l15-28c16.5-9.8336 35.058-17.609 44-35 42.08-10.856 46.02 4.986 64 11 16.714 10.771 51.141 35.25 12-16z" fill-rule="evenodd"/>
  <path d="m943 1033.9 72-20 34-8c27.159-2.0795 25.406 10.297 33 18 8.1497 100.67 8.8486 201.33 1 302-5.5288 5.3333-1.7541 10.667 6 16 10.757-79.507 17.526-208.9 11-308-4.3362-41.117-31.559-46.863-65-43-22.876 10.686-43.781 19.107-59 21l-27 9c-27.837 15.918-59.342 33.671-72 42-9.1457 8.8958-13.171 16.768-9 23 4.464 4.8546 16.935-4.3032 32-18-0.35052-8.4632 20.532-21.173 32-32z" fill-rule="evenodd"/>
  <path d="m859 1448.9 50 13c18.775 3.723 10.052 14.32 9 23 20.126 38.503 47.346 0.2344 75-16 9.4291-6.1916 14.872-4.411 19 0 4.3095-19.362 91.518-69.391 157-126l9-13 44-12-4 18c-76.9 32.599-132.11 82.221-195 136h-5c-54.968 38.687-94.524 70.452-113 7-21.296-7.7564-46.358-24.995-61-16 2.3054-3.993 2.526-7.4648 15-14z" fill-rule="evenodd"/>
  <path d="m868 1164.9c-8.0092-13.387-20.11-26.093-13-42l16-20c32.916-33.142 49.48-28.907 64-20 24.675 25.239 55.398 42.162 60 95l-4 7c-1.8092 59.365-6.518 119.37-32 184-10.736 14.043-19.805 27.783-59 47l-11-6-21 22c27.201 2.1089 61.966-20.996 97-45 26.425-64.339 36.203-133.67 36-206l-4-37c-33.731-69.597-64.874-74.515-96-79-24.523 14.969-43.446 37.406-60 63-10.381 22.976 13.473 33.114 22 49 3.9904 0.6475 8.3352 2.0037 5-12z" fill-rule="evenodd"/>
  <path d="m880 1143.9-12-14c16.645-14.533 29.232-35.153 61-27 31.44 23.303 41.29 47.413 44.136 71.104 0.92394 7.6906 6.1098 21.337 6.0568 28.898-0.0449 6.3978-5.2609 6.734-5.3457 12.983-0.11555 8.522 0.0131 16.882 1.153 25.016l-2 30c-13.3 42.213-9.0234 91.457-59 119l-9-1-13 19c18.667-11.376 37.333-18.412 56-37l10-12c35.284-139.42 22.269-141.38 26-191-2.4347-35.924-28.031-54.477-51-75-13.765-8.1285-31.365-2.2764-51 11l-17 19-3 6 3 20 7 10c9.7783 0.3337 8.566-7.5755 8-15z" fill-rule="evenodd"/>
  <path d="m924 1099.9c-2.1943 8.9376-0.8472 20.531-13 22-38.475 7.3074-41.544 62.169-57 72-1.2741 5.1185 1.333 17.999 2 27 8.8544 3.9052 5.1289-11.379 14-43 8.4175-9.7912 14.906-20.547 18-33 14.993-11.146 22.55-1.847 47-39z" fill-rule="evenodd"/>
  <path d="m934 1179.9c-15.495 6.8752-29.213 16.593-40 31l-8 12c2.6705 24.04 8.8364-5.478 17-10 6.5475-8.2005 14.683-18.308 25-23 11.194-2.7204 8.613-6.3591 6-10z" fill-rule="evenodd"/>
  <path d="m857.01 1193.8c-59.277 52.534-78.086 122.2-91.217 189.5l-3.5355 19.799c-10.951 25.32-20.317 47.09-14.849 54.447l10.607-2.1213-2.1213-5.6568c10.515-14.706 10.487-39.954 14.142-61.518 18.163-44.308 19.506-65.293 43.841-132.94 21.433-27.835 28.706-33.013 41.719-47.376 7.6227-8.054 4.1703-11.278 1.4142-14.142z" fill-rule="evenodd"/>
  <path d="m960.96 1227.7c-27.583 85.868-55.586 175.73-119.5 228.4-1.6583 4.6601-3.0256 9.3579-9.1924 13.435l2.1213 6.3639c94.53-93.154 103.38-152.87 123.74-217.08 5.8926-1.0484 11.785 1.8219 17.678-4.2426 4.3272-6.0315 3.1777-10.694 0-14.849-4.4783 8.0433-8.9567 11.284-13.435 9.8994 1.622-7.099-0.66869-18.111 7.7782-18.385 3.9719-8.2146 10.488-18.973-9.1924-3.5356z" fill-rule="evenodd"/>
  <path d="m757.31 1452.6c9.4332-1.5218 20.68-4.0512-2.8284 12.728-11.48 2.9405-20.71 17.13-30.406 28.991-8.9136 16.328-9.6137 29.918-13.435 44.548 2.7898 11.618-1.1439 24.917-13.435 40.305l-2.8284 9.1924 4.2426 16.264c4.3353 4.4662 10.317 7.5213 21.213 6.3639v-38.891c-1.323-23.422 3.6829-12.035 7.7782-5.6568l0.7071 19.799c1.97 7.8222-0.26808 19.326 8.4853 21.213 9.0896 6.9374 5.5783-5.7267 7.0711-10.607l0.70711-18.385c0.93811-22.409 4.6364-13.818 8.4853-3.5355-1.263 12.085-2.6215 24.189 0.70711 35.355 1.5713 11.706 10.101 11.566 16.971 13.435v-33.941c0.23221-7.8597 5.7682-17.839 9.8995 4.9498-2.9846 15.054 1.5423 26.351 14.556 33.406 9.6331 1.6331 36.495-14.202 20.799-23.506l-20.506-12.728c-7.2924-4.432-7.1191-7.46 2.8284-7.7781 20.881 0.2579 8.2567-8.3758 4.2426-12.021-3.3707-19.859-5.2693-33.082 4.2426-13.435 7.1234 10.737 10.753 16.815 14.142 1.4142 5.0555 0.104 9.1783 0.9541 4.9498 8.4853-7.8381 6.6322-16.118 23.308 0 33.234 14.8 5.6128 20.319 2.8724 16.263-8.4852-6.1969-8.2461 8.0145-33.74-2.1213-43.134-6.3895-5.3529-2.9523-36.911-4.2426-55.861-0.10541-16.174-14.39-26.677-33.234-35.355-14.218-4.4124-12.648-6.1936 7.0711-4.9498 23.179 8.4585 27.185 22.837 33.941 36.77l-1.4142 19.799c0.96639 12.239-2.115 27.514 5.6568 34.648 4.152 8.2699 7.7914 16.988-2.8284 38.184 2.3547 5.7385 8.3362 6.6413 5.6569 19.092 8.0929 12.997-6.3096 11.508-19.799 10.607 1.4417 11.559-15.961 16.836-29.698 23.335-5.6516 0.6077-13.379 6.2153-21.213-6.364-6.6413 1.8164-14.715 7.6331-33.941-9.1924-4.1159 4.1396-11.927 2.1208-24.042-7.0711 4.2242 8.2634-12.312 5.4494-25.456 1.4143-5.958-9.415-13.904-18.432-7.0711-30.406 15.079-44.548 14.027-82.844 52.326-127.99z" fill-rule="evenodd"/>
  <path d="m1779 1129.2c-11.5-0.1483-24.75 3.4451-34.5 13.75-2.7015 9.0971-2.7459 23.508-9 25.5l1.5 4.5 14 16.5 5.5 23.5c2.8608 0.5979 7.0589-2.1473 7.5 4.5 3.3794 11.316-2.0175 29.458 12 32.5 7.3264-1.1631 11.138-0.5687 16-0.5 2.9809 4.7048 8.9683 3.3968 14.5 3 6.3598 1.0265 11.801 1.1342 15.5-0.5 21.013 8.998 12.922-1.0534 25.5-5.5 7.6524-7.3373 2.9647-18.2 2-28-7.3292-8.4605-1.153-9.4182 3-11.5 10-1.8866 6.2448-12.857 17.5-5 7.0616 2.6191 17.323 14.304 17-4 1.3744-18.034-7.0924-11.702-13.5-25l-14.5-2.5c1.1926-15.189-19.954-10.899-28-19.5-14.536-5.1306-11.481-15.852-28-13-2.75-4.7116-12.5-8.6016-24-8.75zm-8 11.25h22.5l2 5c-19.842 1.7605-25.147 21.288-38 34-1.538 6.7969-3.2408 12.893-10-2.5-5.3809-3.9284 4.7887-17.576 9-27.5 6.7703-3 12.984-6 14.5-9zm39.125 9.1876c4.8624 0.017 6.6055 3.848 9.875 5.8124-11.397 4.3729-21.268 11.796-30 21.5-16.935 13.713-4.3333 33.334-6.5 50 9.7506 22.02-0.1934 12.226-7 7.5-7.1661-12.5-6.1667-22.5-11.5-37.5-2.5463-33.819 23.864-35.455 32-42 6.1673-3.9612 10.208-5.3232 13.125-5.3124zm14.438 15.625c2.0594-0.015 4.2054 0.3395 6.4375 1.1874h13.5c1.5169 6.3504-2.9597 6.7071-8 6.5-6.2054 5.2025-12.705 12.607-18 11-1.6803 3.6668-0.9412 7.3334-7.5 11-2.3851 17.328-2.4462 31.169 0.5 40.5 1.8333 15.295-9.3333 11.107-14 4-1.6844-6.1876-16.204-37.892-3-57.5 10.04-5.4864 18.942-16.605 30.062-16.687zm33.031 13.844c5.4142-0.1643 6.4945 4.0055 8.9062 6.8437l6.5 3.5c5.8702 16.326-1.6748 7.4872-10.5 4l1.5-4c-2.6667-3.2116-5.3333-2.9547-8 0.5-5.3653 9.4174-10.825 17.612-17.5 10-5.1051-1.1388-11.647-3.8945-6.5 6.5l7 9.5c8.3955 24.63 0.6639 26.413-6.5 29-12.868 3.8921-5.4381-4.8809-13-33.5 0.4759-9.3573 3.8599-15.807 11-18.5 5.7583-8.5138 14.782-11.586 24.5-13.5 0.9673-0.2172 1.8202-0.3202 2.5938-0.3437z" fill-rule="evenodd"/>
  <path d="m1621 1063.9c17.333 2.3333 38.06-8.9076 52 7 23.135 16.252 39.197 36.748 49 61-6.6667 7.2051-13.333 3.4484-20-8-2.3873-10.68-18.739-24.851-31-38-4.6636 4.6729-16.42-4.8402-26-10-7.6667 4.2559-15.333-0.6205-23-4-3.6509-2.0031-1.8349-5.0997-1-8z" fill-rule="evenodd"/>
  <path d="m1664 1193.9c5.5808 0.3362 13.395-1.8797 1 19-31.528 21.283-47.075 52.155-66 81-21.548 61.675-29.369 85.597-41 120-3.6838 17.72-11.659 27.93-26 27-12.801-23.352-0.4235-70.083 24-128-3.4249 26.394-13.945 57.519-10 79 36.387-71.009 49.902-145.45 118-198z" fill-rule="evenodd"/>
  <path d="m1465 1575.9 14 9 5-4 49 36-17-50c0.799-4.578-2.3963-18.234 8-1l25 52 26 49c2.4979 9.0014 8.6146 15.59 27 14l52 2 13 16-83-4c-15.116-3.0117-31.735-2.7167-34-34-2.898-15.828 3.0394-22.846-27-39-21.076-13.57-39.664-28.134-65-40z" fill-rule="evenodd"/>
  <path d="m1770 1276.9c-1.0444 13.578 0.3829 32.099-16 15-15.667-1.351-31.333-18.544-47-4-8.9058 0.832-17.839 6.3614-27.399 46.217-22.686 48.508-53.938 124.18-79.601 171.78-6.6875 8.5486-10.177 18.163-1 32 17.646 48.121 43.277 101.03 49 142 14.947 29.544 38.317 25.399 61 24 33.803 6.1363 31.282-24.051 46-37 17.017-53.569 27.188-35.687 0-54-17.888-15.184-38.294-17.801-20-2l11 15c19.012 3.8849-1.6877 21.007-4 32-9.9996 11.667-14.88 33.573-32 31-27.907 5.9073-41.362-2.6384-48-18l-56-131c-3.5042-14.617-1.8234-27.91 13-53l86-187c3.407-6.2597 9.0129-10.32 23-6l33 18c15.83 11.105 23.476 23.232 18 37l15-26c-11.691-1.3536-19.442-6.1546-10-26z" fill-rule="evenodd"/>
  <path d="m1780 1342.9c-10.609 5.0805-15.051 0.9104-15-10 2.1635-18.525-16.293-19.867-29-26l-18-3c-5.7942 1.4116-13.208-0.4158-14 11l-14 46-65 128c-19.691 35.08-14.264 49.61-5 61l48 117c5.9411 9.4265 6.8415 23.264 33 15 24.606 1.3464 22.214-12.735 30-21 9.7324-16.15 15.408-30.778 4-39-11.314-6.3715-21-15.999-27-33-7.0382-2.3907-9.8774 1.5172-1 23 9.1088 16.667 37.007 33.333 7 50-37.232 27.225-32.232-3.1384-43-12-19.513-23.127-30.224-72.662-45-110-7.4285-13.848-0.4095-30.585 5-47 33.752-57.972 60.098-118.41 86-179l23 4c15.537 4.9607 21.496 14.903 16 33l3 16z" fill-rule="evenodd"/>
  <path d="m1634 1488.9c9.2069 11.433 12.702 32.385 29 32 2.2063 44.363 20.601 58.373 44 63 58.217 15.4 75.598-23.646 104-48 41.952-52 47.592-104 56-156-0.2841-22.37-6.3344-44.416 3-74l14-4c-2.2941 67.556-4.1214 135.24-35 195-13.32 23.256-37.666 55.333-39 69-33.725 33.461-69.636 34.128-106 28-23.158-3.7613-43.092-17.838-53-64-10.179-5.1305-17.376-19.206-25-32-0.053-5.7194 0.2144-11.119 8-9z" fill-rule="evenodd"/>
  <path d="m1708 1331.9 10 3c7.1794 13.333 21.304 26.667 19 40l5 6-1 9c-20.076 31.333-32.33 58.778-33.232 90.464-2.0486 21.969 5.939 37.086 7.0606 2.4142 8.0744-57.333 43.613-112.55 94.172-169.88 7.0584-7.6917-2.7015-8.1756-14-8l-2 17c-13.106 15.387-31.571 33.452-35 44l-6 2c-7.4586-19.416-19.178-30.311-29-45l-12-3z" fill-rule="evenodd"/>
  <path d="m1763.5 1506.3 21.213-24.749c10.449-11.157 6.8616-6.6222 2.1213 3.5355l-19.799 26.87c-4.9082 8.8051-4.562 7.7781-14.142 7.7781 0.4511-11.512 0.2589-9.0002 10.607-13.435z" fill-rule="evenodd"/>
  <path d="m1890.8 1284.3c-6.8951 7.5225-16.44 14.162-28.991 19.799l-3.5356 2.1213c22.102 7.3981 31.018-8.9386 44.548-16.971z" fill-rule="evenodd"/>
  <path d="m1816.6 1312.4c-19.599-5.0805-39.664-8.6973-50.201-42.259-0.9767-11.116-9.6194-17.44-21.213-21.92-23.624-1.4728-18.348-29.54-29.698-36.062 10.908-29.673-26.111-37.821 4.2426-41.012 11.521 1.8814 22.066-4.539 36.062 18.385 4.952 6.6769 6.9744 14.981 0 28.284-9.9839 13.092-6.3099 0.5764-6.3639-4.9497 6.2212-13.735-0.1432-28.237-16.971-33.941-9.1929-2.1048-14.955-2.004-5.6568 7.7781 5.0502 13.3 9.3031 25.802 7.7781 32.527 2.7413 7.8363 4.4174 16.383 14.849 19.092 9.7473 6.0169 20.57 10.601 22.627 26.87 7.5951 26.371 22.894 37.83 42.426 40.305 25.887 9.9809 9.1908 7.6368 2.1176 6.9032z" fill-rule="evenodd"/>
  <path d="m1293 1252.9c8.2904 40.531-11.174 116.75-40 205-7.1451 15.614-12.08 31.008 7 44l20 27 1 11 14 6c61.435-57.377 117.25-118.5 147-197l21-61-81 8-64-30z" fill-rule="evenodd"/>
  <path d="m1294 1305.9-12-8c-16.97-0.2743-38.616-9.898-58-15-6.0903-1.2616-11.757-1.8175-10 10-1.6116 9.9239-5.0206 20.971 14 18l55 7h7z" fill-rule="evenodd"/>
  <path d="m1447 1313.9c3.4463 6.6102 5.1281 14.103 24 13 18.322-1.6667 31.983-3.3333 37-5l-12 36c-4.1313-8.7375-11.542-10.916-21-9-26.383-5.6966-28.333 6.067-39 4z" fill-rule="evenodd"/>
  <path d="m1238 1224.9-29 139-1 17 8 6 32-144z" fill-rule="evenodd"/>
  <path d="m1458 1290.9c-13.579 48.022-36.755 95.644-61 141l13 5c19.717-42.367 39.84-82.291 57-140l30-10-2-3z" fill-rule="evenodd"/>
  <path d="m1502 1281.9c23.746-1.4724 10.742 14.016 1 28l3 11-18 36v21l-12 20-17 47 3 3c15.517-23.952 32.824-60.433 51-103 10.013-20.327 15.233-43.05 20-66z" fill-rule="evenodd"/>
  <path d="m1206 1399.9 44 14 7 7c-6.9919 47.832-58.917 103.15 6 139l-7 11c-13.904 7.3333-24.697 14.667-46 22l-13 1-68-57-2-13c33.428-31.591 48.803-77.624 70-119z" fill-rule="evenodd"/>
  <path d="m1406 1438.9-17 15c-39.261 52.929-72.664 106.24-192 154 170.23 13.269 136.89 36.872 254-140 3.5636-10.04 24.587-26.952-2-26z" fill-rule="evenodd"/>
  <path d="m1511 1344.9-1 21c-1.2535 90.042-11.894 175.2-79 231l31-14c10.88-7.6586 13.91-20.14 21.416-29.298 6.7199-8.1991 18.218-12.941 22.73-22.121 6.3609-12.942 10.761-26.756 13.858-41.149 2.4639-11.453-3.8975-20.273-2.7531-32.312 2.9863-31.416 10.608-67.328 12.749-99.119 6.3701-15.141-1.5046-27.432-8-40z" fill-rule="evenodd"/>
  <path d="m1062 1432.9c16.01 13.829 80.939 3.9546 114-8l15-1-4 11-13-1c-39.961 14.9-79.841 30.285-125 14z" fill-rule="evenodd"/>
  <path d="m1015 1496.9c18.558 9.3333 12.951 19.667 14 29 25.553 43.341 54.116 77.652 85 105l-33-11-6-16c-25.765-29.843-50.719-60.294-66-98-6.6717-11.672-3.3038-13.304 6-9z" fill-rule="evenodd"/>
  <path d="m842 1497.9 23 4c48.489 58.689 157.05 89.236 192 83 9.3902-0.752 13.842 5.9029 18 13l-41-2 3 10c14.58 1.4054 30.8 7.7338 43 2l9 21c-17.333-8.4749-34.667-9.3498-52-13-9.3333 2.9444-18.667-14.022-28-23-48.384-14.228-96.993-30.922-148-74l-22-11z" fill-rule="evenodd"/>
  <path d="m843 1584.9c1.7425-4.2575 11.988-2.0117 19-1 72 68.281 150.5 68.495 222.5 84l2 7c-38.333-0.024-83.167-10.582-121.5-18 37.707 20.013 85.633 32.981 142 37v13.5c-177.51-35.84-207.25-81.628-264-122.5z" fill-rule="evenodd"/>
  <path d="m1192 1604.9c-43.338 14.004-74.785 18.494-105 22-41.01 21.219-11.226 21.615-12 31l23 35 10 4-5-11-8-6-13-35c7.9647-13.879 18.421-12.806 29-11l8-5 8 4 56-13c9.5339-0.1 10-6.9999 9-15z" fill-rule="evenodd"/>
  <path d="m1230 1625.9-117 26c-6.9993 3.8344-18.116 1.4928-10 28l4 39c31.153-4.1657 28.303-40.191 112-74l-7-3c-43.587 22.662-76.966 26.934-97 65l-4-24 5-7-5-15 7-3z" fill-rule="evenodd"/>
  <path d="m1159.5 1676.9c21.573 24.648 66.48-38.249 98.5-58h11c-24.667 11.458-49.333 41.01-74 62l-7 8c-11.447-1.0084-23.68 2.1265-37.5-6z" fill-rule="evenodd"/>
  <path d="m1204 1670.9c15.52 18.58 35.91 0.8308 54-14l11-17 17 4c-18.097 15.618-40.737 28.965-54 47-12-0.452-26-2.6721-38-11z" fill-rule="evenodd"/>
  <path d="m1319 1628.9c-11.469 13.162-13.866 49.001-35 38l-25-3-1 3c11.884 5.0388 35.298 6.2341 33 16l13 1 16-36-5-7c4.8578-1.3567 4.3272-6.7546 4-12z" fill-rule="evenodd"/>
  <path d="m1187 1684.9c39.807-2.496 133.08 3.077 154-16l8 10c-45.386 6.6139-94.294 9.7064-145 11z" fill-rule="evenodd"/>
  <path d="m1329 1629.9c-4.4364 7.0461-19.228 12.021 1 24 17.667 12.333 29.392 45.46 53 37 9.7794-12.063 28.448-20.42 3-35-16.313-0.1687-35.021-2.4991-55-18-13.636-10.724-1.5042-7.132 8-5 20.021 16.25 44.592 14.299 67 21l6 11-9 5-10 18 5 10-18 31c-18.028-25.242-27.856-49.313-63-77-5.9224-7.553-4.9548-11.661-1.5371-14.544 3.5293-2.9769 0.1711-11.648 13.537-7.4561z" fill-rule="evenodd"/>
  <path d="m1379 1626.9 69 23v8c-6.6667 6.7711-13.333 12.714-20 9l-10-8-9 4 11 8c-3.4958 8.8781-8.0039 16.997-22 18 17.078 14.535 40.952-11.71 63-27 32.877-11.385-14.605-18.043-23-27z" fill-rule="evenodd"/>
  <path d="m1224 1616.9c70.81 9.7141 148.73 38.383 197-12l25-6 3 17-15 15c-0.1116 4.8891-4.0456 11.69 11 9 23.968-36.478 24.46-57.026-26-43-16.278 25.416-51.57 22.311-83 25-26.719-10.948-68.552-13.781-106-14z" fill-rule="evenodd"/>
  <path d="m1134 1702.9c11.667 8.0206 23.333 3.0228 35 1 28.936 5.4046 49.822-1.2671 74-3 36.667 4.5415 73.333-5.8447 110-11l14 11c-29.086 5.0147-52.637 13.351-94 11l-137 3-12-7z" fill-rule="evenodd"/>
  <path d="m1194 1721.9z" fill-rule="evenodd"/>
  <path d="m1124 2053.9 9-1c64.707 24.919 99.878-12.189 139-41l4 16-9-4c-43.906 61.632-98.887 59.675-140 42l-5-4z" fill-rule="evenodd"/>
  <path d="m897 2410.9c17.195 8.2068 35.138 15.293 42 39 79.061 64.008 157.4 86.86 235.2 78.975 99.014-10.035 210.16-58.854 291.8-161.98l2 27c-15.453-3.3017-11.66 6.2263-12 13l-12 2c-58.135 111.01-281.42 187.72-420.3 120.7-46.105-22.25-89.519-54.94-127.7-96.697l-8-8z" fill-rule="evenodd"/>
  <path d="m770.41 2279.9c-8.6659-0.084-17.128 0.9227-25.406 2.9687 0.90003 26.167 0.26522 48.496-1.5 68 4.1584 5.0083 3.0361 15.297 3.5 24-1.9845 21.84-2.8089 41.07 0.5 51l0.5 34 11.5-1 1 6.5c-7.7876 7.9817-14.787 15.648-16 21-18.92 10.965-11.866-3.9953-12.5 33-7.49 1.6766-11.476 6.8573-16.5 11-23.566-0.7388-0.5-18.167-52.5 63.5-12.151 9.3839-24.17 18.723-28.5 25.5-45.805-4.2426-25.648-5.9953-44.5 13.5-14.931 3.2684-11.779 18.592-16 29-1.3255 10.984-0.30147 17.27 1 23l-12.5-2.5c-5.8288 10-7.4608 20-8 30-12.496 23.291 2.6024 11.287 6.5 22.5 3.1549 8.7254 8.7237 5.3817 14.5 1-1.6542 9.4215 1.823 15.911 9.5 20 39.41 18.638 83.784 23.49 147-24 29.166-27.325 54.794-24.584 81.5-31 45.98-2.6685 64.853-35.832 57.5-98.5-2.3984-7.8006-5.3479-15.326-13-20.5 0.54841-8.3602-9.1163-15.444-19-22.5l2.5-3c5.6642 0.9793 12.744 13.991 16-5.5 10.637-2.5052 12.412-12.764 12.5-24.5 6.9526-15.862 0.67387-39.662 1-59.5l29-74.5 13.5-36c-18.258-25.545-46.802-37.374-72.5-53-24.989-15.848-48.447-23.253-70.594-23.469zm37.812 156.94c13.733 1.999 9.034 5.31-3.5312 9.1875-6.6618 3.2377-14.811 4.9766-23.344 6.3437l-15.562 7.7813-4.2188-4.2187c15.113-6.5414 23.18-15.898 46.656-19.094zm-31.844 30.312c5.4153-0.023 11.095 0.9416 17.719 5.75 25.859 6.1082 12.292 12.812-4.9688 7.0625-5.1442 0.6364-10.014 2.3539-16.969-4.25l-16.25-4.9375 4.2188-3.5313c5.6566 0.9419 10.835-0.07 16.25-0.094zm-21.969 42.5c11.223-0.1254 20.814 4.671 31.188 7.0937 48.473 16.396 29.553 25.501 20.5 19.781-19.203-3.0985-29.699-12.733-41.719-21.219-10.83 7.3125-16.687 0.4632-24.031-2.8126 5.0377-1.9873 9.6709-2.7946 14.062-2.8437zm-16.875 13.5c1.4727-0.1132 1.5285 2.3556-0.53125 8.7187-1.6687 7.1685-18.083 8.674-10-1l6.5-5c1.7552-1.6655 3.1476-2.6508 4.0312-2.7187zm16.219 3.0937c8.2993-0.3656 9.8473 9.4499-0.75 9.125-8.8979 9.0606-15.062 8.5579-12.5 0.5l6.5-7.5c2.5693-1.4191 4.8348-2.0405 6.75-2.125zm43.469 11.875c2.5404-0.1296 6.4521 2.4571 8.2812 6.25l24.5 29c20.117 28.994-14.477-0.1228-24.5-12.5-12.792-16.562-11.994-22.56-8.2812-22.75zm-35.125 1.1876c1.4594-0.039 2.3094 1.9311 1.4062 9.5624-4.4278 3.5948-10.057 2.3904-12.5 0.5-3.1872-2.5-2.7684-5 6-7.5 1.5654-0.4742 3.6343-2.5233 5.0938-2.5624zm3.4062 16.562c10.804 24.515 26.672 46.498 22.5 78.5 1.0116 9.6182-21.593 19.524-7.5 0.5l-0.5-21.5c-2.6063-16.939-9.5296-38.196-14.5-57.5zm-10 4.5c10.412 11.284 15.569 29.575 18 51.5-15.54 20.853-12.34 7.8118-9.5 1.5 1.1461-16.34-1.6461-33.993-8.5-53zm56.125 11.219c2.3878-0.2366 2.9352 2.6048 2.375 7.2812-3 5.0615-6 4.4026-9 1.5l5.5-8.5c0.41904-0.1635 0.78388-0.2474 1.125-0.2812zm12.844 12.062c11.414 0.3238 1.6257 6.5909-9.4688 13.219-11.252 11.513-16.748 12.153-16 1 1.9527-9.2137 8.2152-14.118 19.5-14 1.2542-0.1006 2.3872-0.1525 3.4062-0.1874 0.95539-0.033 1.8016-0.053 2.5625-0.031zm-68.031 21.406c1.2143-0.2843-1.1241 3.3992-7.4375 13.312-22.887 6.8538-51.586 19.563-20.5 2l22-11c3.2088-2.548 5.2089-4.142 5.9375-4.3124zm102.34 2.7187c1.9679-0.075 4.8333 10.512 7.2188 26.594-3.5713 35.423-30.273 61.505-103 69-29.154 12.032-60.42 41.638-93.188 50.906-14.85 4.2004-30.205 6.0489-46.312 4.5937l-41.5-11.5c10.968-9.2701 17.53-9.726 20.5-3 18.799 1.8684 50.538 10.288 95.875-9.6562 19.376-8.5236 26.224-20.745 65.625-43.844 61.603-4.6476 89.534-25.366 92.5-58-0.36056-17.648 0.65071-25.031 2.2812-25.094zm-58.844 1.9063c2.1654-0.3028 6.0754 15.095 9.0625 22.187 3.843 58.789-4.1298 26.427-9 18l-1.5-17.5c-0.53314-16.673 0.13824-22.506 1.4375-22.687zm52.062 8.1874c-0.76507 10.442-1.0773 20.769-7 32.5-18.284 25.72-22.38 23.775-14-2.5 13.276-3.724 13.639-20.361 21-30zm-82.344 9.5c0.25487-0.014 0.48449 0 0.71875 0 4.1229 0.081 4.9745 3.1752-0.375 12-5.8935 11.222-10.398 5.7719-15 1.5 0.42292-6.9917 3.5904-10.324 8-12 2.5811-0.8364 4.8722-1.4004 6.6562-1.5zm-32 3.5313c1.9176 0.03 3.8704 0.2161 5.8438 0.4687 6.3602 3.3334 6.6941 6.6668 6.5 10 4.5902 25.032 7.8534 45.917-8.5 5.5-9.0231-4-31.373-8-17.5-12 3.5603-2.7377 7.5479-3.7666 11.75-3.9374 0.63031-0.026 1.2671-0.041 1.9062-0.031zm-111.88 8.6875c4.849-0.063 4.9875 7.9636-9.2812 15.781-12.439 3.52-15.042 1.3021-11.5-4.5l13.5-7c2.7528-3.0041 5.3838-4.2566 7.2812-4.2812zm43.812 3.4062c19.906-0.2905 38.783 3.5353 57.906 6.375 29.4 18.3-5.528 10.831-25.5 2-23.239 0.4278-44.408 2.9258-65 6-12.204-0.3449-36.876-2.1159 24-14 2.8896-0.2249 5.75-0.3333 8.5938-0.375zm150.59 1.9688c1.3508-0.057 2.5948 2.7197 2.8125 7.4062l-1 23-5.5 2 0.5-25c0.72019-5.1012 1.9956-7.3563 3.1875-7.4062zm-20.562 22.312c9.7442 0.1777 11.981 10.515 0.875 12.094-15.583 4.5503-20.036 2.6263-35 5.5 3.9289-7.1597-0.51781-19.105 20.5-16.5l9-0.5c1.6811-0.4447 3.233-0.6191 4.625-0.5937zm-62.312 1.4687c2.0671 0.021 4.6613 0.4087 7.6875 1.125l7 9.5c9.1814 24.959-7.4212 3.3735-17 1-5.3967-8.3562-3.8887-11.686 2.3125-11.625zm2.6875 18.625c0.5076 5.9055 3.928 7.4414 7 9.5-43.388 16.909-44.784 56.279-139 46 6.1635-5.7337 14.015-5.278 16.5-24.5l5 1.5c45.769 13.74 79.963-14.859 110.5-32.5z" fill-rule="evenodd"/>
  <path d="m1512.1 2193.9c-4.6289-0.028-8.3698 4.8501-21.562 16.969l-46.5 44.5c-10.248 10.265-4.502 17.986-20-2v33.5c16.792 53.437 36.67 105.33 56 157.5 0.4701 13.953 1.8689 24.191 5 27.5 2.5634 38.522 10.816 39.113 17 53.5-5.2314 10.462-2.5675 22.239 0 34-9.4144 29.182 10.348 22.934 17.5 32 1.094 56.218 77 35 111 30 23.833-8.9461 47.667-7.3683 71.5 1 56.067 11.872 99.402 12.602 123.5-3.5 8.2167-3.1833 17.712-2.5306 23.5-13 31.207-37.292 1.4145-68.231-30-99-27.364-16.147 3.7018-29.589-50-19-13.69-0.04-28.024-5.8814-40.5 5l-1.5938-0.7812c-2.1341 4.4275 2.6657 8.8537 5.0938 13.281 8.6875 3.7032 16.316 7.6711 14.5 14-3.3737 2.4194-7.0012 4.3311-13 1.5l-1-6c1.0967-5.9762-12.864-18.272-10.5-23h4.5l-3-1.5c-28.328-15.005-48.615-38.051-85-45-17.917-7.2494-31.994-26.017-46-45 4.2421-5.8182 2.2975-12.874 0-20 2.3533-9.3234 0.9589-20.52-2-32.5l-3.5-90.5c6.8322-14.853 16.019-14.517-3-25-16.619-9.4571-27.931-17.853-50.5-28.5-12.578-6.1035-17.353-9.9441-21.438-9.9687zm214.44 297.97 0.4062 0.2188c0.035-0.073 0.055-0.1463 0.094-0.2188h-0.5zm-134.09-91.094-0.5312 0.125c-1.9836 0.7356-5.22 4.0152-8.6562 7.6563-23.369 7.7897-31.603 10.524-44.563 14.844-12.914 8.414-16.597 2.8506-6.3437-4.25 15.724-7.6439 32.133-14.211 51.594-16.25l7.9688-2c0.1866-0.069 0.3679-0.1023 0.5312-0.125zm35.531 48.656c7.7496 0 5.8975 6.9686 4.0625 13.937-9.2214 8.2535-13.925 3.857-16.5-6.5l8.5-7c1.527-0.3056 2.8304-0.4374 3.9375-0.4374zm-14.656 18.312c1.0689-0.092 1.3626 0.2851 1.0313 1.0626-1.0309 2.4189-5.2821 21.565-18.312 15.562-19.757 24.304-40.894 48.147-53 75-7.0445 13.556-11.12 12.268-11.5-7.5 16.126-29.874 40.039-51.961 62.5-75.5 10.9-5.9083 16.93-8.4214 19.281-8.625zm-2.2812 18.625c0.3211 19.447 0.2161 38.213 7 68 34.788 21.644 9.7465 13.374-9.5 8-0.2683-10.097-0.527-20.209-6-22.5 7.1529-11.68 5.1348-35.032 8.5-53.5zm208 25.5c10.643 18.762 28.774 31.638 32.5 57.5-6.7183 32.107-27.377 39.122-47 48-46.51 12.511-71.808 3.8082-99-3-23.053-4.9268-45.772-7.1775-67.5-1.5-32.021 5.8574-65.396 23.899-95 8-14.942-12.071-12.095-15.415 5-8.5 31.944 13.24 59.383 0.9458 87.5-7.5 20.699-3.6242 40.773-11.307 64 1.5 34.544 4.3452 68.703 14.458 104.5 0 19.705-10.77 50.637-13.413 34-50.5-1.4086-10.575-12.828-28.662-19-44zm-79.344 12.969c15.678-0.1633 4.4764 8.0724-5.1562 9.5312-18.221 4.4653-44.325 8.126-63.5 21.5-12.04 8.6348-24.739 7.9607-5-9 14.906-9.3042 41.135-14.079 62-21 4.9274-0.7044 8.7532-1.001 11.656-1.0312zm-88.156 18.531c4.1161 0.08 5.2151 2.4222 4 6.5-4.1818 2.0305-6.9847 1.3028-8.5-2l4.5-4.5zm-23.75 5c0.8893-0.095 2.1993 0.302 3.75 1l3.5 5c-1.9391 1.5163-3.061 5.4838-7.5-0.5-1.5609-3.8105-1.2321-5.3409 0.25-5.5zm-28.75 1.5 4 6.5c-3.5 5.9401-7 1.4787-10.5 0-0.3481-3.1723 0.2615-5.9619 6.5-6.5zm-18.375 0.25c1.7176-0.2029 2.8675 2.2216 1.375 9.75 2.5396 14.774 3.0249 32.63 10.5 40 3.2287 15.306-1.1073 13.592-8.5 5-9.5505-9.4556-9.4341-27.37-8.5-46-0.2375-3.8688 2.9167-8.4889 5.125-8.75zm62.219 1c1.5486-0.2173 3.7522 1.8763 6.6562 8.25l6.5 25c1.6018 14.963-4.9324 14.648-6.5 4-3.5373-5.6095-7.154-10.742-12-8.5l-2.5-7c8.3863 4.6398 5.4057-5.3353 5-12-0.2951-4.1639 0.5802-9.4318 2.8438-9.75zm-77.938 1.875c2.6182 0.01 4.4159 1.2043 5.5938 3.375-1.6667 4-4.6667 5.3334-9 4-13.717 2.7248-8.2026-6.9347 0.5-7 1.0589-0.2757 2.0337-0.3783 2.9062-0.375zm-7.9062 11.813c0.6187 0 1.2922 0.03 2 0.062 19.463-1.6473 15.14 39.592 8 22-1.8284-6.1125-2.9395-12.464-12.5-16-6.0357-2.9884-6.7251-5.7371 0.7812-6.0312 0.5363-0.021 1.1001-0.036 1.7188-0.031zm81.344 19.906c1.2313-0.106 2.5895 1.4039 4.1562 5.6562-1.2636 10.306-9.1792 7.3082-14 10.5-11.752 6.3057-19.829 8.6016-17-1-1.9665-6.1599-0.7801-10.113 10.5-7l11.5-0.5c1.5148-3.8602 3.0439-7.5013 4.8438-7.6562zm135.16 4.6562 29.5 3c21.117-1.4911 2.1987 8.5671-5.5 7.5-13.786 4.1609-30.888 5.834-50 6l-35.5-1c2.5195-3.2743 14.378-4.9924 24.5-7h17c10.809-1.2798 19.752-3.2597 20-8.5zm-176.69 4.3126c1.6411 0.049 4.9839 2.388 8.6875 5.1874 0.6019 6.8632-0.9544 10.273-7 6.5l-1-5c-2.0992-4.5731-2.1675-6.4385-1-6.6562 0.094-0.017 0.2031-0.035 0.3125-0.031zm-22.656 4.125c3.8985-0.2038 4.9894 3.0863 4.3438 8.5624-1.5556 6.4168-8.7966 4.3052-15.5 3-7.588 0.01-15.028-0.2764-20-5.5-5.7573-8.3768 0.5887-5.9951 6.5-4l17.5 0.5c3.0324-1.668 5.3844-2.4701 7.1562-2.5624z" fill-rule="evenodd"/>
  <path d="m1267.1 1704.3c-46.198 3.56-85.302 8.8558-131.5 1.4063-31.231 51.678-40.307 92.278-58 137.19-55.962 160.46-83.216 383.24-90.5 438.41-7.533 62.428-4.6151 107.35-5.6562 131.5 27.813 1.5902 40.07 19.791 66.469 31.125 30.31-173.73 49.12-351.46 96.156-521.84 37.206 5.1159 71.171 3.7327 104.66 1.4062l11.312 49.5c12.728 61.317 25.46 132.83 38.188 169.72 9.8995 72.449 19.788 146.59 29.688 182.41 3.8893 16.852 2.8848 38.624 28.281 33.969 14.04-35.039 52.424-39.136 62.25-74.969l-7.0938-56.562-31.094-144.25-103.25-349.31-9.9062-29.688zm-68.75 10.531c1.9535 0.2571 3.2539 6.982 4.625 13.062 15.667 66.837 29.552 142.22 45.219 194.66l-11.219-1.6563c-0.3073-21.103-15.236-15.74-9-34-10.108-21.788-14.716-84.171-37-147-5.3893-2.4719-2.1771-9.2447 3-17 1.7922-6.0473 3.2029-8.2167 4.375-8.0624z" fill-rule="evenodd"/>
  <path d="m1060 1694.9-6 17c-103.01 126.13-147.54 289.05-189 382-11.12 25.752-31.79 58.326-26 72-10.024 31.352-9.1188 39.974 8 3-4.3922-12.726 3.1799-13.487 9-16-4.1645-22.731 7.5427-26.415 16-34-17.008-17.568 124.82-303.22 181-380 11.579-11.79 23.956-23.978 20-28 0-16-2.5-22.75-10.5-14.75z" fill-rule="evenodd"/>
  <path d="m841 1809.9c-48.232 97.966-79.182 190.17-112 283l-18 73c-13.767 44.15-36.164 132.34-25 161 13.848 20.124 23.38 53.194 42 59l17 8c9.8212-4.9614 4.9108-13.606 5-21-30.151 2.0729-36.187-30.304-49-53-0.37405-52.929 21.9-155.69 47-243 37.025-93.655 58.483-194.39 122-276-9.6667 0.8374-19.333 5.7926-29 9z" fill-rule="evenodd"/>
  <path d="m805 1641.9c1.5438 22.316-7.1101 29.335-16 36 5.4439 27.968-31.421 60.584-33 130-10.957 7.7505-13.351 18.926-11 32 6.3515 24.685 0.76741 37.434-6 49-5 61-7.0889 148.2-15 183 0.61161 9.3786 0.63362 18.773 7 28-2.1605 32.012-9.8684 52.93-20 69-0.9788-81.688-2.2153-163.12 15-263 3.3278-36.672-12.399-92.399 10-110l28-73c-5.4277-11.606 20.756-59.34 32-90z" fill-rule="evenodd"/>
  <path d="m700 2289.9 13-1c49.214-40.113 132.94 1.9267 150 30-33.077-18.927-98.088-52.145-164-4z" fill-rule="evenodd"/>
  <path d="m904 2346.9 61 47c7.5686 4.1373 15.043 8.086 20 7l-4 13c-14.667-1.6437-29.333-15.198-44-24-10.423-5.0735-22.022-24.26-30 0l-17 39c2.1894 19.725-6.8789 31.008-15 43-6.2001 18.733 0.32532 45.643-5 52 0.99862-15.001-1.5385-33.538-3-51 3.6872-5.9794 3.6248-15.708 2-27 17.004-20.662 24.585-50.748 34-79 5.2421-3.2831 11.19-6.4286 1-20z" fill-rule="evenodd"/>
  <path d="m1446 1673.9 12 15c18.208 29.631 31.645 47.832 42.64 63.552 4.5205 6.4631 2.6281 19.507 6.4847 25.753 4.714 7.6354 15.053 8.5735 19.312 17.95 9.227 20.314 24.277 44.28 29.563 92.744 7.82 56.926 0.8602 79.195 9 90l1 73c-0.7844-17.216-11.784-24.216-23-31-17.089-28.174-40.123-63.481-45-77l-93-132-7-15c12 11.347 24 14.406 36 18 21 41.261 42 63.859 63 93l35 57c6.7541 17.259 13.456 33.873 15-14-8.3174-21.767-7.2837-37.3-8-54 1.0718-9.5374-4.7388-31.463-17-65l-84-159z" fill-rule="evenodd"/>
  <path d="m1561 1998.9c39.69 76.484 34.831 148.02 52 222-1.6071 55.102-19.556 19.623-27 79v-67c16.016 19.032 9.6232-6.7537 8-23-3.4252-50.525-13.933-112.18-36-192z" fill-rule="evenodd"/>
  <path d="m1191.2 1723.2-6 0.3535-42.172 133.35c-12.485 16.06-6.7085 24.817-7 36-28.897 101.76-56.722 272.89-78 421-7.0046 35.335-6.8685 68.29-6 101-3.2715 8.0856-2.9952 14.965-12 25 5.9018 9.6278 14.507 11.146 23 13 4.9001-28.333 7.7474-56.667 10-85 23.333-138.85 46.667-275.48 70-409 22.002-74.026-16.39 0.7289 4-85l39.99-137.88z" fill-rule="evenodd"/>
  <path d="m1262.9 1704.3 117.38 388.91c-1.8526 16.718 1.404 30.882 7.0711 43.841l25.456 118.79c6.1249 21.494 1.4077 36.483-11.314 46.669-30.608 21.489-39.719 38.679-52.326 56.569l-4.2426-1.4142-1.4142 18.385c23.415-29.46 48.305-56.708 79.196-74.953 14.138-9.3372 4.9821-37.309 1.4143-60.811l-130.11-490.73c2.626-11.516-8.0261-17.72-18.385-24.042l2.8285-15.556z" fill-rule="evenodd"/>
  <path d="m1879 1202.9 90 36c4.8538 4.4795 9.9207 8.746 20 8-1.9143 11-6.8732 22-4 33l2 29-4 15c2.3484 7.9014-11.838 2.0239-25-3l-143-69h17c50.061 29.092 89.336 42.004 134 63 12.667 6.0001 16 2.6665 10-10 5.61-20.943 2.1581-32.825 3-49-40.273-11.394-72.51-30.823-105-50l-17-10z" fill-rule="evenodd"/>
  <path d="m1623 1089.9c38.338 13.676 80.2 34.399 121 53v9c-44.871-19.936-92.241-41.12-127-56z" fill-rule="evenodd"/>
  <path d="m1623 1164.9 15 3 86 41-3 6-103-49z" fill-rule="evenodd"/>
  <path d="m1274 937.42c-15.109-9.6049-37.071-20.435-56-30.5-5.7331-0.55422-12.522-7.8463-19 8-13.654 6.9255-10.038 25.889-13 35l14-28c2.9168-3.7726 3.2326-12.31 11-5 22.103 6.1652 45.099 19.342 65 29.5z" fill-rule="evenodd"/>
  <path d="m1318 807.92c11.426-8.4754 0.047-9.3489-3-13l-80-12c-4.6667 7.3414-9.3333 6.9845-14 1l-17 21-49 104v5c-8.0973 19.042-12.169 50.16-25 55l-50-25c21.667-40.229 43.333-98 65-147h2c5.9227-12.744 11.511-25.822 20-36 4.0834-5.7545-3.7011-12.98 20-14 53.333-3.5552 125.85 14.009 153 27 8.6667 5.3333 12 10.667 10 16z" fill-rule="evenodd"/>
  <path d="m1118 862.92-364-156c-37.78-21.886-79.856-39.477-120-59-10.028-4.1348-20.344-6.2592-33 8-14.153 22.212-21.482 43.45-17 63 40.634 18.301 83.304 38.637 119 52 130.33 57.227 260.67 114.02 391 166l-35-21c-133.33-55.689-266.67-114.99-400-176-14.049-0.74487-19.688-7.0971-26-13-13.975-1.3582-24.501-6.1658-36-10-4.8221-9.72-7.2688-33.469 11-53 4.3051-7.7232 10.736-11.195 23-3l45 21 8 1c144.33 62 300.72 133.04 433 186z" fill-rule="evenodd"/>
  <path d="m513 595.92c-28.497-13.054-54.944-25.426-91-41-2.9265-1.8758-8.109-0.74361-19 8-6.3797 12.287-17.582 19.751-19 37-7.6326 22.633-11.329 41.329 10 35 23.921 15.095 44.591 20.44 66 28l24 13 8-15c-8.0028 9.6582-23.077-1.8971-36-7l-40-22c-2.2858-13.619-12.985-6.2053-20-8-13.218-5.5809 2.555-31.455 15-55 7-2.0451 14-5.9245 21-3l11 10 57 21 16 4z" fill-rule="evenodd"/>
  <path d="m690 673.92c13.333-30.71 26.667-71.48 40-92 3.9485-6.8792 10.928-12.46-3-27-32.634-51.052-93.877-56.805-158-58-15.375 0.45002-14.116 7.5535-17 13-42.121 83.106-73.22 171.72-105 260-4.8079 4.7176-6.7649 15.137-9 25-7.8977 7.077-4.0149 10.227 4 12l5 11 18-3c22.758 11.215 25.757 4.6483 22-8l73-196c15.789-13.435 21.456-34.969 24-59 4.5684-10.18 3.8044-22.581 39-20 36.261 1.0721 65.068 9.5988 88 24 11.306 2.8729 14.355 10.464 7 24-10.134 28.033-29.661 58.415-30 84z" fill-rule="evenodd"/>
  <path d="m892 851.92c12.51 1.2074 7.8119 14.706 2 29l-50 133-4 21 7 3 53-149c5.827-14.136 11.752-28.1 28-24z" fill-rule="evenodd"/>
  <path d="m771 795.92c13.105 9.2707-0.18308 22.312-4 34l-9 25c-12 27.667-21.027 67.226-36 83l3 6-10 11 6 5c20.037-28.574 35.202-69.329 50-111 7.1924-14.859 15.294-30.627 20-43z" fill-rule="evenodd"/>
  <path d="m651 747.92c-11.077 14.086-15.858 30.27-19 47l-37 86c-3.5962 8.5304-12.143 20.774-6 22l-10 7 12 10v-12c27.284-25.049 7-17.667 48-109 11.945-6.3882 13.47-23.197 18-37l12-7z" fill-rule="evenodd"/>
  <path d="m484 817.92c30.054 32.138 88.346 94.576 205 155l-5 5c-141.36-74.674-173.25-118.36-200-160z" fill-rule="evenodd"/>
  <path d="m704 989.92c29.335 12.005 61.345 32.035 88 36l57 18 7 8c-0.53053 5 2.2836 10-3 15l19 5c-7.3897-4.8309-11.032-20.905-16-33l-2-4c-72.849-12.606-93.011-28.975-132-44-4.041-4.2513-11.472-1.7226-18-1z" fill-rule="evenodd"/>
  <path d="m575 909.92v6l-24 9-38 105c-8.5829 12.417-12.007 29.993-18 45l5 4c12-25 24.539-48.921 34-79 8.1961-16.49 16.592-32.914 17-52l12-11 9-7c11.764-6.3119 19.538-6.6397 26-5z" fill-rule="evenodd"/>
  <path d="m715 988.92c0.88267 5.9413 4.2334 13.117-5 14-13.765 3.4275-16.419 11.299-17 20-16.318 22.674-20.667 51.333-31 77-10.235 17.549-17.089 36.789-22 57l12 6v-12c10.403-17.801 15.579-33.86 18-49l29-69c-2.9294-7.3031 3.2629-10.697 19-10-10-5.3333-9.3331-10.667 2-16 0.63913-6.5873 9.3326-3.6921 15-8z" fill-rule="evenodd"/>
  <path d="m840 1068.9c6.412 1.8309 10.085 6.953 3 25l-41 107-5 17 10-2-1-12c12.701-12.983 14.67-31.332 22-47-2.7907-9.7287 8.0382-8.1476 15-13-5.5062-8.787 3.561-31.754 8-48 3.4688-15.927 8.2043-21.054 17-21z" fill-rule="evenodd"/>
  <path d="m394 940.92c5.7858-22.238 27.701-76.735 43-118 7.264-14.973 12.378-8.443 17 3 54.304 91.555 204.93 167.61 344 228l18 7 60 10-4 7-60-16c-52.08-14.636-164.67-57.938-220-104l-5 2c-47.314-39.176-106.16-72.587-129-124l-11 1-4-4c-13.659 37.964-27.878 78.721-39 104l-11 15z" fill-rule="evenodd"/>
  <path d="m382 919.92c-14.9 4.5892-30.445 19.403-35 34l-5 1c13.152 58.658 88.371 127.52 128 157 114.47 82.241 214.34 111.9 316 148 0 0 14.671 5.4714 20-17 4.316-10.996 34.28-27.123 3-31-50.578-8.493-120.4-40.082-183-63-69.907-40.175-123-78.482-169-116-22.793-27.182-46.666-36.006-67-105 9.3334-12 6.6666-14.667-8-8z" fill-rule="evenodd"/>
  <path d="m362 999.92c1.5405 7.7703 3.6085 15.804 0 21-9.3333 22.303-18.667 37.422-28 77-10.726 16.738-19.237 34.953-22 57l-105 259c-4.5739 18.101-4.6993 25.082-4 30l9 22c-6.743-2.0338 2.3026-26.623 14-55 38.667-104.67 3.0924-2.2402 116-314l30-62c1.3184-13.045 6.3688-14.894 13-12z" fill-rule="evenodd"/>
  <path d="m480 1110.9-22 49-2 13-38 100 4 13c4.1562-5.2813 3.6719-12.109 15-15l36-94c-11.79 5.4563 0.50664-13.173 3-22l8-20c1.3333-7.3334 6.6667-9.3333 16-6z" fill-rule="evenodd"/>
  <path d="m318 1527.9-17 33-17 25c8.3491 11.403-2.2845 19.01-6 28l11 2c3.6936-10.266 6.2368-23.408 15-21l9-37c1.5746-7.0921 5.8315-11.502 10-16z" fill-rule="evenodd"/>
  <path d="m616 1189.9c2.3819 7.7379 7.6713 14.749 0 25-3.939 11.939-14.567 30.567-9 33 12.236 3.9962 15.409-13.156 20-27 1.9827-10.584 3.2814-22.309 13-20z" fill-rule="evenodd"/>
  <path d="m778 1253.9v12l-12 29c-10.809 22.844 5.2223 22.776 6 5 9.0424-13.541 15.918-27.805 17-44z" fill-rule="evenodd"/>
  <path d="m708 1439.9c-0.29324 6.7068-1.3745 12.626-3 18 3.3333-3.1674 6.6667-1.9113 10-11 2.1773-10.452-2.7411-8.1327-7-7z" fill-rule="evenodd"/>
  <path d="m662 1570.9c-7.8502 28.248-10.778 56.989-31 84 1.1948 11.407-7.3992 41.025-15 59l-17 33c8.814 10.693-2.3886 17.748-7 26-3.619-8.3333-2.6434-16.667-1-25-8.9548-1.4003-3.3288-9.0496-4-14l16-28c5.2382-9.3479 10.385-17.794 15-21-4.0549-8.9443-2.2737-16.721 7-23l-3-8c6.5971-14.194 24.621-51.242 40-83z" fill-rule="evenodd"/>
  <path d="m535 1433.9-40 73c12.321 0.7726-2.5277 24.833-7 40l-23 55c-7.7247 16.705-8.1328 28.533-8 40 10.276-2.3092 12.479-24.801 18-39l26-60c9.9226-19.304 19.694-37.246 27-33l9-60c9.4055-49.651 0.84132-20.235-2-16z" fill-rule="evenodd"/>
  <path d="m206 1426.9c-11.782-8.4708-21.881-5.1656-31 5-5.8585 10.667-22.163 21.333-6 32 4.2834 9.6586 4.9824 6.7716 14 33l21 19c74 78.363 148 123.17 222 162 61 33.75 122 48.384 183 67 47.333 15.054 94.667 19.314 142 24l13-33c-49.419-5.8688-102.32-14.522-165-31-112.73-41.01-224.08-91.198-302-157-26.333-26.026-52.667-50.904-79-82-14.363-23.362-9.6938-27.694-12-39z" fill-rule="evenodd"/>
  <path d="m192 1500.9c-4.249 9.1549-15.114 17.365-2 29 20.522 17.359 45.189 39.694 79 73 18.834 3.041 25.319 15.344 34 26 24.508 11.464 76.699 43.691 121 70 13.098-5.4224 9.3229-14.06 4-22l25 9c-4.4504 4.4325-17.926-9.1857-8 24 48.939 25.183 100.46 42.633 152 60 46.822 14.045 95.522 20.579 145 24l-12 10c-198.75-24.88-384.28-98.309-557-274-8.7571-6.7819-7.4933-15.568-3-25 5.4695-4.8638 7.8609-12.806 8-23z" fill-rule="evenodd"/>
  <path d="m452.19 1169.1c-2.2409 0.082-4.6182 0.3509-7.1875 0.8437l-54 19 3 62 19 19 85 10c17.885 3.161 19.024 8.1825 13 14l-17 16-2 7-14 14-43-22-19-1c-5.3797-9.0333-10.745-8.1943-16.125 1.4376l-17.875 1.5624c-28.452 9-8-6-30 57l-34 78c-27.862 51.642-4.759 57.416-7 86 5.6092 20.743 22.052 27.041 35 38l26-2c4.3333 18.812 8.6667 10.82 13-2l76 32 21 10 52 30c0.6321 28.322 16.671 31.993 30 40 12.333 7.863 24.667 4.4445 37 2l25-24 72-130c6.0132-14.83 4.5312-31.534 20-44-9.219-44.446-48.858-70.38-83-91-14.208-7.5156-22.045-15.828-15-26 7.4722-11.089 14.437-29.307 24-11 29.703 25.09 64.304 62.427 89 75l9-1c14.612-15.378 14.246-56 25-84 3.3048-8.8476 6.1762-17.912-27-45-81.039-35.65-180.18-63.54-243-107-15.66-6.7057-23.151-23.64-44.812-22.844zm6.125 216.28c8.5415-0.1669 22.912 5.4953 33.688 7.5624l94 36c46.052 25.795 16.52 26.395 20 38l-8 36c-1.4919 14.032-5.9516 16.194-10 20l-20 45-6 9-140-57-9-6-9-3 8-27c1.9107-5.4821 5.1721-8.7131 15-1l96 37c15.751 7.7528 29.914 7.5692 43 2 6.9714-5.4084 22.032-5.5432 4-39-7.4039-17.154-19.429-27.844-41-40l-74-27c-20.68-1.7917-16.843-9.2415-3-19-2.6545-8.6128 0.46835-11.448 6.3125-11.562z" fill-rule="evenodd"/>
  <path d="m1850.1 702.27c-1.4086-1.6974-5.8458-3.6773-9.8602-4.3998s-8.3847-2.1738-9.7115-3.2251-3.1904-1.4306-4.1413-0.84288-4.7939-0.79542-8.5401-3.0736c-10.535-6.4069-16.646-6.8603-77.906-5.78-6.05 0.1066-14.039 0.21534-17.754 0.24144s-9.472 1.4533-12.795 3.1716c-5.6688 2.9315-6.6502 2.8389-15.919-1.5024l-9.8778-4.6265-3.783 4.9227c-2.0806 2.7075-3.8029 6.016-3.8274 7.3523-0.069 3.7918-7.4384 6.9199-11.498 4.881-15.175-7.6207-19.301-10.277-19.608-12.621-0.194-1.4794-0.95-7.9312-1.68-14.337-1.4932-13.104-5.6361-24.342-11.18-30.325-6.2227-6.7164-5.8991-11.42 0.9221-13.401 10.092-2.9321 22.027-0.1356 28.744 6.7353 3.74 3.8253 7.2007 5.7042 9.1377 4.9609 3.3403-1.2818 4.1279-8.6325 1.388-12.953-2.3704-3.7382-11.917-8.3687-17.254-8.3687-2.4896 0-5.6435-1.3459-7.0086-2.9908s-5.9609-4.0331-10.213-5.3069-9.2246-3.967-11.051-5.9847c-3.1319-3.4607-2.9921-3.814 2.4678-6.235 10.109-4.4826 37.583-29.488 35.112-31.958-1.0046-1.0046-8.6378-1.791-16.963-1.7476l-15.136 0.079-8.1128-10.189c-4.4621-5.6041-8.1129-11.403-8.1129-12.887s3.6439-4.5571 8.0975-6.8291 8.5646-5.3484 9.1355-6.8363 5.0272-5.2267 9.9026-8.3085 8.8644-6.3237 8.8644-7.2043 1.575-3.192 3.5-5.1364c6.5702-6.6363 16.5-20.036 16.5-22.266 0-1.224-2.2801-4.2079-5.0669-6.631-4.1593-3.6164-4.8201-5.495-3.6891-10.487 3.5395-15.622 1.6917-23.994-7.0392-31.896-3.2113-2.9062-4.2141-6.2128-4.2444-13.995-0.1024-26.321-8.5456-58.214-17.218-65.035-4.6725-3.6754-8.7429-11.796-8.7429-17.442 0-1.6646 3.474-6.4661 7.72-10.67 5.8741-5.8156 10.371-8.1935 18.806-9.9447 18.452-3.8306 32.027-9.7179 39.393-17.084l6.9918-6.9918-4.362-4.3621c-4.0516-4.0516-4.9739-4.1799-12.956-1.8034-4.7264 1.4073-12.505 4.3717-17.286 6.5875-7.1458 3.3119-10.883 3.7818-21 2.6406-19.41-2.1893-32.406-12.882-37.172-30.584-1.932-7.1752-1.6584-9.3263 2.1453-16.862 2.3979-4.751 6.3605-10.888 8.8058-13.638s5.6763-8.5213 7.1801-12.825c2.4106-6.8994 11.261-15.143 16.284-15.168 2.6974-0.014 5.98 10.707 5.6334 18.397-0.5253 11.657 5.078 14.2 28.219 12.808 18.907-1.1376 38.922-3.5928 56.14-6.8864 5.248-1.0039 13.555-1.3729 18.461-0.82002 6.3879 0.72002 10.402 0.034 14.143-2.4177 3.0778-2.0167 10.615-3.7692 18.346-4.2657 7.2173-0.46352 14.109-1.624 15.315-2.5788s8.2259-1.8165 15.6-1.9148 15.193-1.2944 17.376-2.6579c4.6869-2.927 11.18-0.1714 21.101 8.9549 3.3637 3.0943 8.5357 7.0808 11.493 8.8588s7.7283 7.5522 10.602 12.832 6.4114 10.293 7.8623 11.141c4.6709 2.731 10.609 17.18 9.2537 22.517-2.558 10.072-28.502 15.132-45.095 8.7951-4.4-1.6804-16.644-3.5549-27.209-4.1656-17.583-1.0164-19.445-0.77464-22 2.8561-1.535 2.1816-4.6735 4.561-6.9745 5.2878-5.1148 1.6154-13.994 10.742-12.198 12.538 2.4981 2.4981 32.458 0.58246 41.695-2.6661l9.3137-3.2753 5.2332 5.8281c2.8783 3.2055 6.5091 8.1558 8.0684 11.001s6.0392 7.6165 9.9552 10.603c11.804 9.0035 16.465 22.193 10.271 29.066-3.9861 4.4237-9.4655 19.728-10.265 28.672-0.3695 4.1331-1.2146 8.393-1.878 9.4664-1.8783 3.0391-6.7358 32.826-5.6432 34.605 1.9827 3.2279-16.615 24.729-25.505 29.486-3.1251 1.6725-5.253 1.071-10.577-2.9896-3.6655-2.7958-7.4796-5.0752-8.4758-5.0653s-4.2214-2.9151-7.1672-6.5c-5.2899-6.4375-5.5863-6.5231-24-6.9317-10.254-0.22752-27.477 0.4298-38.273 1.4607-18.785 1.7938-19.922 2.1767-26.465 8.9136-4.2519 4.3783-8.7396 7.0393-11.871 7.0393-2.7695 0-5.0354 0.72-5.0354 1.6 0 2.5506 4.5464 6.4 7.5589 6.4 1.5174 0 7.9453 5.4 14.284 12 9.4013 9.7885 12.71 12 17.955 12 3.5366 0 10.24 0.95938 14.897 2.132 7.3499 1.8507 10.435 1.4465 23.386-3.0645 34.945-12.172 33.471-11.837 41.439-9.4182 11.48 3.4842 30.998 18.124 29.457 22.094-3.7856 9.7576-7.6886 27.031-9.0964 40.256-1.9456 18.278-2.0872 65.655-0.233 78l1.3517 9 9 0.44626c7.6214 0.37792 10.01 1.5938 15.59 7.9373 3.6244 4.12 9.3155 13.028 12.647 19.794s8.1352 13.416 10.675 14.775c9.2106 4.9294 7.4091 26.047-2.222 26.047-1.4795 0-2.69 0.79508-2.69 1.7668s-2.025 2.2491-4.5 2.8385-6.3629 1.6569-8.6397 2.3722c-2.6113 0.82036-5.0853 0.1612-6.701-1.7856zm-141.41-62.782c0.8608-1.3928-8.0266-30.047-10.002-32.246-0.413-0.46-2.9996 0.36708-5.748 1.838-6.2145 3.3259-6.3429 8.0293-0.4191 15.345 2.5178 3.1094 5.6485 8.1285 6.9571 11.153 2.2693 5.2458 7.1149 7.3025 9.2116 3.91zm72.697-12.654c2.4125-2.4125 1.1941-7.8346-2.2978-10.226-3.6262-2.483-12.524-1.6893-15.04 1.3415-4.0221 4.8464 0.8123 11.128 8.5643 11.128 3.5913 0 7.5393-1.0097 8.7733-2.2437zm-53.444-22.686c0-3.8587-7.2719-7.8665-9.0508-4.9882-1.6159 2.6147 2.6008 7.9178 6.2957 7.9178 1.5153 0 2.7551-1.3183 2.7551-2.9296zm-33.353-17.07c7.9179 0 14.21-6.3147 12.616-12.663-2.0471-8.1562-8.8871-6.9101-19.08 3.476-8.5683 8.7305-9.8541 15.292-2.1932 11.192 2.0609-1.103 5.9566-2.0054 8.6571-2.0054zm86.047-4.9794c3.4795-3.4795 6.1692-14.006 4.3365-16.972-2.8939-4.6825-24.004 0.29702-27.29 6.4372-3.5 6.5398 2.7772 13.514 12.163 13.514 4.296 0 9.1517-1.3407 10.79-2.9794zm-52.562-21.091c2.2184-1.1872 3.8685-4.1731 3.8685-7 0-3.9062-1.0234-4.9296-4.9296-4.9296-6.1938 0-10.495 6.8732-6.9643 11.128 2.8447 3.4277 3.0758 3.4507 8.0254 0.8018zm-37.633-21.43c6.3194-6.6241 9.7285-14.897 7.575-18.381-2.7512-4.4515-9.8203-0.2634-15.28 9.0524-4.2329 7.2229-4.7548 9.4657-2.7616 11.867 3.3615 4.0504 4.4269 3.792 10.466-2.5387zm91.299-13.562c1.0305-1.066 2.4866-6.1243 3.2357-11.241 1.2272-8.3823 0.9347-9.4382-2.9568-10.673-6.1359-1.9475-26.882 8.6177-27.664 14.088-0.3236 2.2619 1.5986 6.4724 4.2715 9.3565 4.5991 4.9626 5.299 5.1141 13.05 2.8255 4.5047-1.3301 9.0335-3.2905 10.064-4.3565zm-61.397-16.938c4.9951 0 4.5066-5.1382-0.845-8.8866-6.9382-4.8597-12.903-3.9826-14.436 2.1226-0.7228 2.8798-1.0453 5.4471-0.7168 5.705 3.957 3.1072 8.9175 4.4938 10.497 2.9344 1.045-1.0315 3.52-1.8754 5.5-1.8754zm53.192-99.205c8.6414-1.3244 12.858-9.2008 7.6924-14.368-2.7272-2.7282-6.9754-3.4066-20.855-3.3302-17.446 0.096-33.575 1.52-44.571 3.9352-5.0141 1.1013-5.8586 2.2248-5.8586 7.7945 0 3.5793 0.6395 7.1472 1.421 7.9288 1.4366 1.4365 49.999-0.0944 62.171-1.9598zm-62.828-44.54c3.4298-2.06 11.554-4.3347 18.053-5.0547 12.05-1.335 42.643 2.0597 46.083 5.1136 4.2781 3.7976 10.584 1.76 11.802-3.8134 0.661-3.025 1.7585-7.4486 2.4388-9.8302 1.8911-6.6199-5.8368-10.431-23.926-11.8-12.28-0.92904-16.262-0.54238-18.888 1.8344-2.2291 2.0173-7.0599 2.9242-14.632 2.7469-6.5452-0.1532-12.586 0.79864-14.348 2.261-1.9542 1.6218-5.5568 2.0541-10.067 1.208-6.7891-1.2736-7.0677-1.083-8.3416 5.707-1.4726 7.8501 0.2209 15.372 3.4608 15.372 1.1711 0 4.9354-1.6855 8.3653-3.7455z"/>
 </g>
</svg>
